<?xml version="1.0" encoding="UTF-8"?>
<svg xmlns="http://www.w3.org/2000/svg" xmlns:xlink="http://www.w3.org/1999/xlink" width="3760" height="3760" viewBox="0 0 3760 3760">

<path fill-rule="nonzero" fill="rgb(100%, 100%, 100%)" fill-opacity="1" d="M 1576.570312 851.960938 Z M 1650.191406 1196.308594 C 1649.910156 1196.308594 1649.640625 1196.328125 1649.378906 1196.378906 C 1647.851562 1196.648438 1646.5 1197.691406 1645.890625 1199.25 L 1643.230469 1206.089844 C 1642.679688 1207.5 1642.871094 1209.109375 1643.730469 1210.359375 C 1643.859375 1210.550781 1644 1210.730469 1644.148438 1210.890625 C 1644.480469 1211.238281 1644.859375 1211.550781 1645.308594 1211.789062 C 1645.480469 1211.890625 1645.660156 1211.980469 1645.859375 1212.050781 C 1646.050781 1212.121094 1646.238281 1212.191406 1646.441406 1212.230469 C 1646.800781 1212.320312 1647.171875 1212.371094 1647.53125 1212.371094 C 1647.699219 1212.371094 1647.878906 1212.359375 1648.050781 1212.339844 L 1654.269531 1211.761719 C 1654.019531 1212.359375 1653.898438 1213.03125 1653.929688 1213.71875 C 1654.039062 1216.191406 1656.070312 1218.128906 1658.53125 1218.128906 C 1658.570312 1218.128906 1658.609375 1218.121094 1658.640625 1218.121094 C 1658.738281 1218.121094 1658.839844 1218.121094 1658.941406 1218.109375 L 1659.039062 1218.101562 C 1659.050781 1218.101562 1659.058594 1218.101562 1659.070312 1218.101562 C 1661.601562 1217.871094 1663.46875 1215.640625 1663.25 1213.101562 C 1663.179688 1212.320312 1662.929688 1211.609375 1662.53125 1211 L 1662.871094 1210.96875 C 1665.398438 1210.730469 1667.269531 1208.488281 1667.03125 1205.960938 C 1666.808594 1203.570312 1664.800781 1201.769531 1662.441406 1201.769531 C 1662.308594 1201.769531 1662.160156 1201.78125 1662.019531 1201.789062 L 1655.191406 1202.421875 C 1655.121094 1202.429688 1655.058594 1202.429688 1654.988281 1202.441406 L 1654.519531 1202.480469 C 1655.371094 1200.140625 1654.191406 1197.53125 1651.859375 1196.621094 C 1651.660156 1196.550781 1651.46875 1196.480469 1651.28125 1196.441406 C 1650.910156 1196.351562 1650.550781 1196.308594 1650.191406 1196.308594 Z M 1338.890625 2249.121094 C 1337.28125 2249.121094 1335.789062 2249.960938 1334.949219 2251.339844 C 1334.109375 2252.710938 1334.058594 2254.429688 1334.808594 2255.859375 L 1349.371094 2283.730469 C 1350.140625 2285.21875 1351.609375 2286.101562 1353.148438 2286.199219 C 1353.25 2286.210938 1353.351562 2286.210938 1353.449219 2286.210938 C 1353.980469 2286.210938 1354.511719 2286.121094 1355.03125 2285.929688 C 1355.210938 2285.859375 1355.398438 2285.78125 1355.578125 2285.691406 C 1357.839844 2284.511719 1358.710938 2281.730469 1357.539062 2279.46875 L 1342.96875 2251.589844 C 1342.179688 2250.070312 1340.609375 2249.121094 1338.890625 2249.121094 Z M 1481.121094 2517.75 C 1480.019531 2517.75 1479.011719 2518.128906 1478.210938 2518.78125 C 1477.671875 2518.550781 1477.078125 2518.429688 1476.460938 2518.429688 C 1476.378906 2518.429688 1476.289062 2518.441406 1476.210938 2518.441406 C 1476.070312 2518.449219 1475.929688 2518.460938 1475.789062 2518.480469 C 1435.089844 2524.5 1395.550781 2531.25 1357.160156 2538.730469 C 1354.839844 2539.179688 1353.230469 2541.328125 1353.460938 2543.691406 C 1353.691406 2546.058594 1355.671875 2547.859375 1358.050781 2547.859375 C 1358.128906 2547.859375 1358.238281 2547.859375 1358.328125 2547.851562 C 1358.53125 2547.839844 1358.730469 2547.808594 1358.929688 2547.769531 C 1397.171875 2540.328125 1436.570312 2533.601562 1477.128906 2527.601562 C 1477.980469 2527.46875 1478.738281 2527.121094 1479.371094 2526.621094 C 1479.789062 2526.789062 1480.238281 2526.898438 1480.710938 2526.941406 L 1480.730469 2526.941406 C 1480.789062 2526.949219 1480.851562 2526.960938 1480.910156 2526.960938 C 1480.980469 2526.960938 1481.050781 2526.960938 1481.128906 2526.960938 C 1483.488281 2526.960938 1485.5 2525.160156 1485.710938 2522.761719 C 1485.820312 2521.46875 1485.390625 2520.199219 1484.519531 2519.238281 C 1483.648438 2518.289062 1482.410156 2517.75 1481.121094 2517.75 Z M 1646.5 753.890625 C 1655.800781 755.179688 1672.210938 760.429688 1695.730469 769.660156 C 1696.308594 770.671875 1696.601562 773.5 1696.589844 778.179688 C 1696.589844 778.25 1696.589844 778.328125 1696.589844 778.410156 C 1696.589844 778.46875 1696.578125 778.53125 1696.578125 778.589844 C 1696.570312 779.679688 1696.539062 780.839844 1696.480469 782.070312 C 1696 790.769531 1694.941406 800.75 1693.300781 812.019531 L 1693.289062 812.039062 C 1691.820312 822.191406 1689.398438 836.019531 1686.019531 853.519531 C 1686 853.660156 1685.980469 853.800781 1685.960938 853.941406 C 1685.730469 856.089844 1680.609375 870.871094 1670.589844 898.300781 L 1670.570312 898.339844 L 1670.550781 898.421875 L 1670.53125 898.460938 C 1668.46875 904.800781 1667.011719 910.621094 1666.140625 915.921875 C 1666.121094 916.019531 1666.109375 916.121094 1666.101562 916.210938 C 1666.089844 916.269531 1666.089844 916.320312 1666.089844 916.378906 C 1665.089844 932.679688 1664.570312 945.730469 1664.539062 955.558594 C 1664.539062 955.578125 1664.539062 955.609375 1664.539062 955.628906 C 1664.539062 955.679688 1664.539062 955.730469 1664.539062 955.78125 L 1667.789062 1028.859375 C 1667.890625 1031.320312 1669.929688 1033.261719 1672.390625 1033.261719 C 1672.429688 1033.261719 1672.460938 1033.261719 1672.488281 1033.261719 C 1674.121094 1033.21875 1675.519531 1032.351562 1676.320312 1031.070312 C 1676.5 1030.769531 1676.679688 1030.480469 1676.859375 1030.191406 C 1676.871094 1030.160156 1676.890625 1030.140625 1676.898438 1030.109375 L 1676.910156 1030.109375 C 1688.808594 1010.929688 1702.910156 993.308594 1719.179688 977.238281 L 1719.171875 977.238281 L 1745.441406 954.140625 L 1774.910156 933.480469 L 1807.730469 915.140625 L 1843.910156 899.140625 C 1880.140625 886.21875 1900.601562 879.488281 1905.289062 878.941406 L 1905.300781 878.941406 C 1905.308594 878.941406 1905.308594 878.941406 1905.320312 878.941406 C 1905.660156 879.019531 1906 879.058594 1906.359375 879.058594 C 1906.46875 879.058594 1906.589844 879.058594 1906.710938 879.050781 C 1906.839844 879.039062 1906.96875 879.019531 1907.089844 879 C 1928.070312 875.589844 1944.808594 873.859375 1957.320312 873.839844 C 1957.320312 873.839844 1957.328125 873.839844 1957.328125 873.839844 C 1957.410156 873.839844 1957.5 873.839844 1957.609375 873.839844 C 1958.019531 873.839844 1958.429688 873.839844 1958.828125 873.839844 L 1958.941406 873.839844 L 1971.25 873.671875 L 1971.269531 873.671875 C 1973.820312 873.628906 1976.359375 873.609375 1978.878906 873.609375 C 2007.328125 873.609375 2033.210938 876.128906 2056.511719 881.171875 L 2056.519531 881.171875 L 2056.558594 881.179688 L 2056.570312 881.179688 C 2088.949219 887.71875 2134.730469 899.460938 2193.898438 916.398438 L 2193.890625 916.398438 C 2157.328125 929.851562 2129.320312 946.640625 2109.878906 966.761719 C 2101.761719 974.601562 2094.039062 983.300781 2086.710938 992.871094 C 2086.601562 993 2086.511719 993.140625 2086.421875 993.289062 C 2062.28125 1033.25 2043.96875 1061.480469 2031.5 1077.960938 L 2031.488281 1077.96875 C 2031.429688 1078.050781 2031.371094 1078.128906 2031.320312 1078.210938 C 2031.289062 1078.25 2031.269531 1078.28125 2031.25 1078.320312 L 2031.238281 1078.328125 C 2027.109375 1085.058594 2017.679688 1094.421875 2002.941406 1106.429688 C 1998.28125 1110.101562 1993.179688 1113.738281 1987.660156 1117.359375 C 1906.179688 1083.820312 1817.828125 1065.75 1722.609375 1063.121094 C 1722.601562 1063.121094 1722.578125 1063.121094 1722.558594 1063.121094 C 1722.539062 1063.121094 1722.511719 1063.121094 1722.480469 1063.121094 C 1722.460938 1063.121094 1722.441406 1063.121094 1722.410156 1063.121094 C 1722.390625 1063.121094 1722.359375 1063.121094 1722.339844 1063.121094 C 1716.671875 1063.300781 1711.019531 1063.539062 1705.398438 1063.820312 C 1704.128906 1063.890625 1703 1064.460938 1702.21875 1065.339844 C 1685.101562 1083 1672.609375 1098.71875 1664.75 1112.480469 C 1662.738281 1112.96875 1661.25 1114.789062 1661.25 1116.960938 C 1661.25 1118.171875 1661.71875 1119.289062 1662.488281 1120.109375 L 1662.519531 1120.140625 C 1663.429688 1121.191406 1664.71875 1121.71875 1666 1121.71875 C 1666.921875 1121.71875 1667.851562 1121.441406 1668.640625 1120.878906 C 1668.808594 1120.871094 1668.980469 1120.871094 1669.171875 1120.859375 C 1669.328125 1120.859375 1669.480469 1120.851562 1669.640625 1120.820312 C 1669.71875 1120.820312 1669.789062 1120.808594 1669.871094 1120.789062 C 1671.890625 1120.871094 1677.691406 1121.441406 1687.261719 1122.5 L 1687.25 1122.5 C 1705.308594 1124.71875 1734.601562 1129.179688 1775.128906 1135.878906 C 1775.21875 1135.898438 1775.308594 1135.910156 1775.390625 1135.921875 C 1775.429688 1135.921875 1775.46875 1135.929688 1775.5 1135.929688 C 1783.75 1136.621094 1812.078125 1144.648438 1860.5 1160.011719 C 1860.511719 1160.019531 1860.519531 1160.019531 1860.519531 1160.019531 C 1860.621094 1160.050781 1860.71875 1160.078125 1860.820312 1160.101562 C 1872.828125 1162.988281 1884.039062 1164.441406 1894.46875 1164.449219 C 1895.328125 1164.480469 1896.199219 1164.5 1897.078125 1164.5 C 1910.980469 1164.5 1926.089844 1160.390625 1942.390625 1152.191406 L 1942.378906 1152.191406 C 1959.949219 1144.199219 1975.351562 1136.039062 1988.570312 1127.71875 L 1988.578125 1127.71875 C 2042.679688 1150.429688 2093.679688 1180.089844 2141.601562 1216.691406 L 2141.589844 1216.691406 C 2226.839844 1324.460938 2287.019531 1433.078125 2322.101562 1542.550781 C 2322.710938 1544.460938 2324.480469 1545.75 2326.480469 1545.75 C 2326.539062 1545.75 2326.601562 1545.75 2326.660156 1545.75 L 2326.679688 1545.75 C 2335.238281 1545.390625 2343.75 1545.21875 2352.21875 1545.21875 C 2368.578125 1545.21875 2384.761719 1545.871094 2400.75 1547.191406 L 2400.789062 1547.191406 C 2413.140625 1548.089844 2425.429688 1549.351562 2437.660156 1550.960938 C 2437.859375 1550.988281 2438.058594 1551 2438.261719 1551 C 2438.5 1551 2438.75 1550.980469 2438.980469 1550.941406 C 2439.828125 1550.808594 2440.640625 1550.429688 2441.289062 1549.859375 L 2441.410156 1549.75 C 2441.53125 1549.640625 2441.640625 1549.519531 2441.75 1549.398438 C 2441.839844 1549.300781 2441.921875 1549.191406 2442 1549.070312 C 2470.75 1508.929688 2506.589844 1470.820312 2549.53125 1434.738281 L 2549.519531 1434.738281 C 2585.761719 1407.378906 2623.851562 1384.621094 2663.800781 1366.46875 L 2663.789062 1366.46875 C 2720.910156 1347.410156 2800.941406 1325.199219 2903.878906 1299.828125 C 2903.929688 1299.820312 2903.96875 1299.808594 2904.011719 1299.800781 L 2904.019531 1299.800781 C 2904.171875 1299.75 2904.328125 1299.699219 2904.480469 1299.640625 L 2970.699219 1273.238281 L 2981.378906 1450.980469 C 2981.390625 1451.058594 2981.390625 1451.109375 2981.398438 1451.191406 C 2981.410156 1451.261719 2981.421875 1451.339844 2981.429688 1451.410156 L 2981.429688 1451.421875 L 3025.019531 1729.949219 L 3025.011719 1729.949219 C 3029.558594 1776.828125 3026.710938 1828.359375 3016.46875 1884.539062 L 3016.449219 1884.539062 C 3004.871094 1927.171875 2988.738281 1963.5 2968.058594 1993.550781 C 2967.128906 1994.890625 2966.988281 1996.609375 2967.660156 1998.070312 L 2967.640625 1998.070312 C 2982.621094 2043.789062 2991.738281 2089.578125 2994.988281 2135.449219 L 2994.988281 2135.460938 C 2995 2135.519531 2995 2135.570312 2995.011719 2135.640625 L 2995.011719 2135.660156 C 3013.589844 2299.621094 2987.210938 2459.148438 2915.878906 2614.21875 C 2909.71875 2612.019531 2903.46875 2609.839844 2897.140625 2607.679688 C 2896.949219 2607.609375 2896.761719 2607.550781 2896.558594 2607.519531 C 2896.339844 2607.46875 2896.109375 2607.441406 2895.890625 2607.429688 L 2895.871094 2607.429688 L 2895.878906 2607.429688 C 2895.800781 2607.429688 2895.710938 2607.429688 2895.640625 2607.429688 C 2893.859375 2607.429688 2892.230469 2608.449219 2891.46875 2610.070312 C 2871.980469 2651.519531 2849.160156 2692.640625 2823.019531 2733.429688 C 2725.039062 2885.394531 2582.71875 3001.847656 2396.058594 3082.785156 L 2396.050781 3082.785156 C 2305.761719 3114.722656 2218.949219 3130.691406 2135.589844 3130.691406 C 2029.179688 3130.691406 1928.351562 3104.652344 1833.109375 3052.578125 C 1725.46875 2985.964844 1644.570312 2901.644531 1590.398438 2799.621094 C 1596.070312 2799.726562 1601.710938 2799.78125 1607.308594 2799.78125 C 1607.890625 2799.78125 1608.46875 2799.78125 1609.058594 2799.78125 C 1609.359375 2799.78125 1609.660156 2799.78125 1609.949219 2799.78125 C 1610.71875 2799.777344 1611.46875 2799.585938 1612.140625 2799.222656 C 1614.359375 2798.019531 1615.199219 2795.253906 1614.019531 2793.019531 C 1603.949219 2773.929688 1594.859375 2754.210938 1586.730469 2733.851562 C 1586.140625 2732.199219 1584.640625 2731.019531 1582.871094 2730.828125 C 1573.539062 2729.871094 1564.28125 2728.550781 1555.070312 2726.851562 L 1555.058594 2726.851562 C 1554.820312 2726.800781 1554.578125 2726.78125 1554.339844 2726.78125 L 1554.339844 2726.769531 C 1554.289062 2726.769531 1554.28125 2726.769531 1554.230469 2726.769531 C 1552.710938 2726.769531 1551.289062 2727.519531 1550.429688 2728.78125 C 1549.570312 2730.03125 1549.390625 2731.621094 1549.929688 2733.039062 C 1557.480469 2752.570312 1565.859375 2771.546875 1575.058594 2789.972656 C 1569.660156 2789.777344 1564.210938 2789.53125 1558.730469 2789.238281 L 1558.71875 2789.238281 C 1554.929688 2788.515625 1551.179688 2787.765625 1547.460938 2786.988281 C 1547.140625 2786.921875 1546.828125 2786.890625 1546.511719 2786.890625 C 1544.929688 2786.890625 1543.46875 2787.699219 1542.621094 2789.027344 L 1544.25 2788.128906 L 1542.621094 2789.027344 C 1541.78125 2790.359375 1541.671875 2792.03125 1542.339844 2793.457031 C 1598.890625 2913.816406 1688.699219 3012.039062 1811.761719 3088.128906 C 1811.789062 3088.148438 1811.839844 3088.171875 1811.878906 3088.195312 C 1811.921875 3088.21875 1811.921875 3088.222656 1811.96875 3088.246094 L 1811.96875 3088.25 C 1911.980469 3142.921875 2017.859375 3170.257812 2129.609375 3170.257812 C 2217.109375 3170.257812 2308.179688 3153.492188 2402.808594 3119.964844 C 2402.910156 3119.925781 2403.011719 3119.890625 2403.101562 3119.847656 L 2403.109375 3119.847656 C 2598.140625 3035.226562 2746.878906 2913.417969 2849.320312 2754.421875 L 2849.328125 2754.410156 C 2876.578125 2711.871094 2900.359375 2668.980469 2920.679688 2625.75 L 2920.691406 2625.75 C 3124.75 2699.871094 3231.160156 2790.703125 3239.929688 2898.242188 L 3239.910156 2898.242188 L 3228.820312 2953.40625 L 3228.800781 2953.40625 C 3175.109375 3065.453125 3017.601562 3155.527344 2756.261719 3223.628906 C 2531.480469 3281.757812 2272.648438 3310.824219 1979.78125 3310.824219 C 1927.980469 3310.824219 1875.101562 3309.914062 1821.160156 3308.09375 C 1478.800781 3290.855469 1204.988281 3238.972656 999.734375 3152.453125 C 934.285156 3124.621094 880.378906 3094.289062 838.011719 3061.460938 L 838.007812 3061.460938 L 784.5 3010.683594 L 784.492188 3010.683594 C 755.757812 2976.46875 741.15625 2940.832031 740.691406 2903.773438 L 740.683594 2903.773438 C 749.328125 2788.238281 870.535156 2691.519531 1104.300781 2613.621094 L 1104.378906 2613.589844 C 1104.421875 2613.578125 1104.460938 2613.570312 1104.480469 2613.558594 C 1104.96875 2613.390625 1105.449219 2613.230469 1105.921875 2613.078125 C 1116.941406 2615.941406 1128.019531 2618.5 1139.140625 2620.730469 C 1139.210938 2620.75 1139.210938 2620.75 1139.269531 2620.75 L 1139.28125 2620.761719 C 1139.308594 2620.761719 1139.339844 2620.769531 1139.378906 2620.769531 L 1199.808594 2629.78125 C 1199.890625 2629.789062 1200 2629.800781 1200.078125 2629.808594 L 1200.089844 2629.808594 L 1200.121094 2629.820312 L 1200.128906 2629.820312 C 1226.101562 2631.789062 1248.878906 2632.78125 1268.449219 2632.78125 C 1269.960938 2632.78125 1271.460938 2632.78125 1272.96875 2632.769531 L 1272.980469 2632.769531 L 1272.96875 2632.769531 C 1273.070312 2632.769531 1273.171875 2632.761719 1273.28125 2632.75 C 1273.640625 2632.730469 1274.011719 2632.660156 1274.359375 2632.539062 C 1274.390625 2632.53125 1274.46875 2632.5 1274.519531 2632.488281 C 1275.96875 2631.960938 1277.058594 2630.738281 1277.421875 2629.238281 C 1277.789062 2627.738281 1277.371094 2626.160156 1276.320312 2625.019531 C 1262.910156 2610.570312 1247.28125 2593.339844 1229.429688 2573.300781 C 1229.308594 2573.160156 1229.179688 2573.03125 1229.039062 2572.910156 C 1229 2572.871094 1228.941406 2572.828125 1228.890625 2572.78125 C 1228.351562 2572.351562 1227.578125 2571.601562 1226.570312 2570.539062 C 1226.011719 2569.949219 1225.300781 2569.53125 1224.519531 2569.300781 C 1224.191406 2569.199219 1223.851562 2569.140625 1223.511719 2569.121094 L 1223.5 2569.121094 C 1223.421875 2569.121094 1223.320312 2569.109375 1223.230469 2569.109375 C 1223.089844 2569.109375 1222.960938 2569.121094 1222.820312 2569.128906 C 1222.570312 2569.160156 1222.320312 2569.199219 1222.070312 2569.261719 C 1181.769531 2579.730469 1142.949219 2591.140625 1105.621094 2603.46875 C 1078.109375 2596.191406 1050.929688 2586.929688 1024.101562 2575.691406 C 985.855469 2559.660156 948.296875 2539.621094 911.417969 2515.550781 L 911.410156 2515.550781 L 856.207031 2476.109375 L 856.210938 2476.109375 C 820.03125 2447.988281 784.53125 2415.851562 749.710938 2379.691406 L 749.703125 2379.691406 C 728.144531 2353.238281 710.054688 2325.210938 695.429688 2295.621094 L 695.421875 2295.621094 L 675.90625 2249.519531 C 664.757812 2218.25 657.09375 2185.390625 652.910156 2150.941406 C 648.722656 2116.460938 648.019531 2080.390625 650.804688 2042.71875 L 650.800781 2042.71875 L 657.660156 1984.640625 L 669.636719 1924.960938 L 669.625 1924.960938 C 670.101562 1924.230469 670.507812 1923.738281 670.84375 1923.5 L 670.851562 1923.5 C 711.59375 1938.480469 760.058594 1954.78125 816.246094 1972.398438 L 816.242188 1972.398438 C 841.058594 1980.621094 886.089844 1993.988281 951.335938 2012.511719 L 951.339844 2012.511719 C 951.371094 2012.519531 951.40625 2012.53125 951.449219 2012.539062 C 951.828125 2012.640625 952.214844 2012.691406 952.597656 2012.691406 C 952.679688 2012.691406 952.75 2012.679688 952.828125 2012.679688 C 953.738281 2012.640625 954.628906 2012.320312 955.375 2011.75 C 956.527344 2010.890625 957.203125 2009.519531 957.203125 2008.078125 L 957.203125 2007.929688 C 956.84375 1997.121094 956.640625 1986.25 956.589844 1975.328125 C 957.066406 1950.941406 958.175781 1926.941406 959.921875 1903.339844 L 959.925781 1903.339844 L 1002.808594 1948.269531 L 1002.789062 1948.25 L 1002.808594 1948.28125 C 1002.929688 1948.398438 1003.050781 1948.519531 1003.179688 1948.628906 C 1003.191406 1948.628906 1003.210938 1948.648438 1003.21875 1948.660156 L 1058.578125 1993.96875 C 1059.421875 1994.660156 1060.449219 1995.019531 1061.5 1995.019531 C 1062.160156 1995.019531 1062.839844 1994.871094 1063.46875 1994.570312 C 1065.078125 1993.808594 1066.109375 1992.191406 1066.109375 1990.410156 C 1066.109375 1990.320312 1066.101562 1990.230469 1066.101562 1990.140625 C 1066.089844 1989.960938 1066.058594 1989.78125 1066.03125 1989.589844 C 1060.890625 1960.820312 1057.519531 1932.058594 1055.941406 1903.339844 C 1054.738281 1849.871094 1055.179688 1817.871094 1057.25 1807.339844 L 1057.269531 1807.230469 C 1057.289062 1807.140625 1057.308594 1807.03125 1057.320312 1806.941406 L 1057.320312 1806.929688 C 1057.328125 1806.871094 1057.339844 1806.789062 1057.351562 1806.710938 C 1060.539062 1768.550781 1067.300781 1729.46875 1077.621094 1689.488281 L 1077.609375 1689.488281 C 1078.078125 1688.039062 1077.800781 1686.441406 1076.851562 1685.238281 C 1059.699219 1663.449219 1042.480469 1640.570312 1025.191406 1616.621094 L 1025.179688 1616.621094 C 1023.519531 1614.179688 1021.738281 1611.539062 1019.839844 1608.679688 C 1019.128906 1607.609375 1018 1606.878906 1016.730469 1606.679688 C 1016.480469 1606.640625 1016.238281 1606.621094 1016 1606.621094 C 1015.5 1606.621094 1015.019531 1606.699219 1014.558594 1606.851562 C 1013.25 1607.28125 1012.171875 1608.289062 1011.671875 1609.648438 C 980.96875 1693.769531 961.21875 1784.589844 952.414062 1882.121094 L 944.664062 1874 L 893.230469 1802.300781 L 854.921875 1726.589844 L 829.707031 1646.828125 L 817.566406 1562.960938 L 818.511719 1474.941406 L 832.5625 1382.738281 L 859.289062 1288 L 859.28125 1288 C 860.761719 1287.480469 862.996094 1287.171875 865.980469 1287.070312 L 865.972656 1287.070312 L 867.894531 1287.039062 C 868.074219 1287.039062 868.257812 1287.019531 868.4375 1287 C 868.703125 1286.960938 868.964844 1286.898438 869.222656 1286.820312 C 869.957031 1286.578125 871.195312 1286.460938 872.933594 1286.460938 C 895.542969 1286.460938 973.691406 1307.058594 1107.378906 1348.261719 L 1107.371094 1348.261719 C 1121.570312 1354.199219 1135.730469 1361.039062 1149.859375 1368.78125 C 1150.550781 1369.160156 1151.308594 1369.351562 1152.070312 1369.351562 C 1152.878906 1369.351562 1153.691406 1369.128906 1154.421875 1368.699219 C 1154.53125 1368.640625 1154.640625 1368.570312 1154.738281 1368.5 C 1155.109375 1368.230469 1155.429688 1367.921875 1155.710938 1367.570312 C 1163.699219 1357.289062 1171.929688 1347.160156 1180.410156 1337.179688 C 1241.179688 1265.601562 1308.449219 1208.511719 1382.230469 1165.910156 C 1396.5 1174.890625 1410.011719 1182.429688 1422.78125 1188.5 C 1423.410156 1188.808594 1424.089844 1188.949219 1424.769531 1188.949219 C 1425.101562 1188.949219 1425.429688 1188.910156 1425.75 1188.839844 C 1426.53125 1188.679688 1427.269531 1188.300781 1427.878906 1187.730469 C 1427.910156 1187.699219 1427.941406 1187.679688 1427.960938 1187.648438 C 1443.25 1172.828125 1457.460938 1164.398438 1470.589844 1162.359375 L 1476.839844 1161.871094 C 1490.511719 1161.910156 1503.308594 1169.410156 1515.238281 1184.390625 C 1521.179688 1192.160156 1526.070312 1199.738281 1529.921875 1207.140625 C 1529.988281 1207.269531 1530.070312 1207.398438 1530.148438 1207.53125 C 1530.21875 1207.628906 1530.289062 1207.738281 1530.378906 1207.839844 C 1531.171875 1208.859375 1532.320312 1209.46875 1533.550781 1209.589844 C 1533.699219 1209.609375 1533.851562 1209.609375 1534.011719 1209.609375 C 1534.019531 1209.609375 1534.03125 1209.609375 1534.050781 1209.609375 C 1534.070312 1209.609375 1534.089844 1209.609375 1534.109375 1209.609375 C 1536.890625 1209.609375 1539.71875 1209.589844 1542.589844 1209.539062 C 1552.628906 1209.441406 1563.390625 1209.148438 1574.890625 1208.679688 C 1575.828125 1208.640625 1576.71875 1208.320312 1577.46875 1207.761719 C 1577.761719 1207.539062 1578.019531 1207.289062 1578.25 1207.011719 C 1584.988281 1198.890625 1591.929688 1191.941406 1599.058594 1186.160156 C 1599.5 1187.058594 1599.949219 1187.960938 1600.398438 1188.890625 C 1601.019531 1190.148438 1602.148438 1191.019531 1603.441406 1191.339844 C 1603.800781 1191.421875 1604.160156 1191.460938 1604.539062 1191.460938 C 1604.710938 1191.460938 1604.890625 1191.460938 1605.058594 1191.441406 C 1605.230469 1191.421875 1605.410156 1191.390625 1605.578125 1191.351562 C 1607.671875 1190.859375 1609.140625 1189 1609.140625 1186.859375 L 1609.140625 1186.679688 C 1609 1182.96875 1608.851562 1179.570312 1608.699219 1176.460938 C 1608.628906 1174.898438 1607.769531 1173.488281 1606.421875 1172.699219 C 1605.699219 1172.28125 1604.890625 1172.070312 1604.089844 1172.070312 C 1603.550781 1172.070312 1603 1172.171875 1602.480469 1172.359375 C 1593.179688 1153.878906 1586.75 1142.550781 1583.210938 1138.378906 C 1575.5 1126.460938 1567.269531 1115.25 1558.519531 1104.71875 C 1554.789062 1100.058594 1550.789062 1095.429688 1546.5 1090.828125 C 1545.738281 1090.011719 1544.71875 1089.5 1543.648438 1089.378906 C 1543.46875 1089.359375 1543.300781 1089.351562 1543.121094 1089.351562 C 1542.839844 1089.351562 1542.570312 1089.371094 1542.308594 1089.421875 C 1542.171875 1089.441406 1542.039062 1089.46875 1541.898438 1089.511719 C 1485.808594 1104.828125 1432.679688 1126.710938 1382.488281 1155.148438 C 1378.140625 1152.339844 1373.71875 1149.398438 1369.230469 1146.320312 C 1356.570312 1136.710938 1346.46875 1127.480469 1338.949219 1118.628906 C 1331.609375 1110 1326.761719 1101.789062 1324.390625 1093.980469 C 1319.890625 1078.890625 1318.679688 1060.261719 1320.738281 1038.101562 C 1322.289062 1024.738281 1325.46875 1010.859375 1330.28125 996.46875 L 1330.269531 996.46875 C 1334.449219 995.679688 1340.21875 995.21875 1347.578125 995.101562 L 1351.148438 995.070312 L 1351.320312 995.070312 C 1352.441406 995.019531 1353.738281 994.988281 1355.230469 994.988281 C 1367.511719 994.988281 1391.449219 996.710938 1427.070312 1000.140625 L 1427.171875 1000.140625 L 1427.210938 1000.148438 C 1448.019531 1001.519531 1466.910156 1004.558594 1483.878906 1009.261719 C 1505.890625 1015.648438 1524.941406 1024.410156 1541.050781 1035.519531 C 1549.378906 1041.308594 1557.230469 1048.640625 1564.609375 1057.5 C 1571.328125 1065.578125 1577.648438 1074.929688 1583.570312 1085.558594 C 1584.210938 1086.710938 1585.289062 1087.5 1586.5 1087.800781 C 1586.859375 1087.878906 1587.21875 1087.929688 1587.589844 1087.929688 C 1587.738281 1087.929688 1587.890625 1087.921875 1588.039062 1087.910156 C 1588.199219 1087.890625 1588.359375 1087.859375 1588.519531 1087.828125 C 1593.640625 1086.78125 1598.789062 1085.769531 1603.949219 1084.820312 C 1603.960938 1084.820312 1603.960938 1084.820312 1603.960938 1084.820312 C 1604.308594 1084.761719 1604.640625 1084.660156 1604.960938 1084.519531 C 1605.128906 1084.441406 1605.289062 1084.359375 1605.449219 1084.269531 C 1606.941406 1083.390625 1607.820312 1081.761719 1607.71875 1080.03125 L 1601.769531 974.191406 L 1601.769531 974.070312 L 1598.550781 935.179688 C 1598.550781 935.160156 1598.550781 935.160156 1598.539062 935.140625 C 1598.539062 935.070312 1598.53125 935 1598.519531 934.929688 C 1591.898438 886.730469 1584.058594 844.28125 1575.011719 807.601562 C 1573.96875 799.691406 1573.539062 792.691406 1573.730469 786.601562 C 1578.519531 771.839844 1602.78125 760.941406 1646.488281 753.890625 Z M 4.609375 0 C 3.386719 0 2.214844 0.480469 1.351562 1.351562 C 0.484375 2.210938 0 3.390625 0 4.609375 L 0 3754.609375 C 0 3757.152344 2.0625 3759.214844 4.609375 3759.214844 L 3754.609375 3759.21875 C 3755.828125 3759.21875 3757 3758.730469 3757.871094 3757.867188 C 3758.730469 3757.003906 3759.21875 3755.832031 3759.21875 3754.609375 L 3759.21875 4.609375 C 3759.21875 2.058594 3757.148438 0 3754.609375 0 Z M 4.609375 0 "/>
<path fill-rule="nonzero" fill="rgb(85.546875%, 85.546875%, 85.546875%)" fill-opacity="1" d="M 3244.570312 2898.453125 L 3233.230469 2954.8125 C 3179.199219 3068.414062 3020.589844 3159.507812 2757.429688 3228.089844 C 2492.429688 3296.617188 2180.28125 3324.820312 1820.96875 3312.699219 C 1478.039062 3295.433594 1203.691406 3243.429688 997.929688 3156.695312 C 932.003906 3128.65625 877.683594 3098.070312 834.972656 3064.9375 L 781.105469 3013.8125 C 751.496094 2978.621094 736.488281 2941.863281 736.078125 2903.542969 C 744.808594 2785.917969 867.0625 2687.820312 1102.839844 2609.25 C 1338.628906 2530.671875 1634.171875 2489.539062 1989.480469 2485.859375 C 2344.808594 2488.101562 2640.519531 2528.03125 2876.621094 2605.648438 C 3112.71875 2683.269531 3235.371094 2780.867188 3244.570312 2898.453125 "/>
<path fill-rule="nonzero" fill="rgb(28.24707%, 47.459412%, 4.704285%)" fill-opacity="1" d="M 2974.910156 1266.601562 L 2902.78125 1295.359375 C 2799.609375 1320.78125 2719.398438 1343.050781 2662.148438 1362.160156 C 2621.800781 1380.46875 2583.328125 1403.441406 2546.75 1431.070312 C 2444.058594 1517.300781 2381.558594 1615.160156 2359.25 1724.671875 C 2354.289062 1749.210938 2355.371094 1774.429688 2362.5 1800.328125 L 2368.988281 1819.890625 C 2374.070312 1833 2380.660156 1846.300781 2388.769531 1859.75 C 2396.878906 1873.210938 2406.488281 1886.839844 2417.628906 1900.640625 L 2773.328125 2187.25 C 2875.671875 2098.210938 2936.148438 2041.921875 2954.761719 2018.398438 C 2984.191406 1984.109375 3006.269531 1939.769531 3020.988281 1885.378906 C 3031.339844 1828.671875 3034.199219 1776.621094 3029.570312 1729.238281 L 2985.980469 1450.699219 L 2974.910156 1266.601562 "/>
<path fill-rule="nonzero" fill="rgb(28.24707%, 47.459412%, 4.704285%)" fill-opacity="1" d="M 671.210938 1918.71875 L 670.484375 1918.78125 C 668.574219 1919.078125 666.839844 1920.570312 665.28125 1923.238281 L 653.109375 1983.910156 L 646.226562 2042.179688 C 643.402344 2080.21875 644.105469 2116.660156 648.335938 2151.5 C 652.566406 2186.328125 660.324219 2219.558594 671.609375 2251.191406 L 691.1875 2297.429688 C 706 2327.460938 724.339844 2355.878906 746.210938 2382.699219 C 781.289062 2419.140625 817.058594 2451.53125 853.527344 2479.859375 L 908.75 2519.308594 C 945.910156 2543.570312 983.765625 2563.78125 1022.320312 2579.941406 C 1060.871094 2596.089844 1100.109375 2608.179688 1140.058594 2616.210938 L 1200.480469 2625.21875 C 1246.53125 2628.730469 1282.441406 2629.109375 1308.230469 2626.371094 L 1406.160156 2462.980469 C 1395.78125 2394.828125 1378.210938 2334.371094 1353.449219 2281.601562 L 1333.53125 2243.46875 C 1319.359375 2219 1303.378906 2196.460938 1285.609375 2175.851562 C 1246.089844 2127.390625 1188.539062 2087.738281 1112.949219 2056.910156 L 1073.839844 2042.011719 C 940.917969 2005.21875 855.511719 1980.550781 817.625 1968.011719 C 760.941406 1950.230469 712.136719 1933.800781 671.210938 1918.71875 "/>
<path fill-rule="nonzero" fill="rgb(28.24707%, 47.459412%, 4.704285%)" fill-opacity="1" d="M 867.8125 1282.429688 L 865.871094 1282.460938 C 860.871094 1282.628906 857.378906 1283.421875 855.394531 1284.839844 L 828.050781 1381.761719 L 813.90625 1474.570312 L 812.957031 1563.269531 L 825.199219 1647.859375 L 850.640625 1728.339844 L 889.277344 1804.699219 L 941.109375 1876.949219 L 1006.140625 1945.089844 L 1084.359375 2009.121094 L 1409.679688 1824.210938 C 1414.589844 1749.421875 1409.441406 1684.519531 1394.25 1629.519531 C 1386.648438 1602.019531 1376.539062 1577 1363.910156 1554.449219 L 1343.089844 1522.480469 L 1318.488281 1494.210938 L 1250.230469 1433.230469 C 1216.828125 1406.308594 1196.75 1391.121094 1189.980469 1387.679688 C 1163.101562 1369.859375 1136.089844 1355.269531 1108.929688 1343.921875 C 961.769531 1298.558594 881.394531 1278.070312 867.8125 1282.429688 "/>
<path fill-rule="nonzero" fill="rgb(45.872498%, 62.693787%, 14.892578%)" fill-opacity="1" d="M 671.210938 1918.71875 L 670.484375 1918.78125 C 668.574219 1919.078125 666.839844 1920.570312 665.28125 1923.238281 L 663.023438 1934.488281 C 664.648438 1939.820312 666.71875 1945.269531 669.230469 1950.820312 C 683.539062 1982.761719 712.367188 2023.46875 755.71875 2072.929688 C 803.886719 2121.890625 851.660156 2165.398438 899.042969 2203.460938 L 969.824219 2256.460938 L 1040.019531 2301.289062 L 1109.621094 2337.941406 L 1178.640625 2366.410156 L 1247.058594 2386.710938 L 1314.898438 2398.839844 C 1347.539062 2401.589844 1373.761719 2402.949219 1393.570312 2402.910156 C 1393.941406 2402.910156 1394.308594 2402.910156 1394.679688 2402.910156 C 1406.78125 2402.851562 1416.421875 2402.261719 1423.621094 2401.128906 L 1428.78125 2400.699219 L 1378.269531 2344.191406 L 1141.160156 2078.960938 L 1117.699219 2058.871094 C 1116.128906 2058.210938 1114.539062 2057.558594 1112.949219 2056.910156 L 1073.839844 2042.011719 C 940.917969 2005.21875 855.511719 1980.550781 817.625 1968.011719 C 760.941406 1950.230469 712.136719 1933.800781 671.210938 1918.71875 Z M 671.210938 1918.71875 "/>
<path fill-rule="nonzero" fill="rgb(45.872498%, 62.693787%, 14.892578%)" fill-opacity="1" d="M 872.855469 1281.859375 C 870.671875 1281.859375 868.992188 1282.050781 867.8125 1282.429688 L 865.871094 1282.460938 C 860.871094 1282.628906 857.378906 1283.421875 855.394531 1284.839844 L 847.707031 1312.089844 C 850.007812 1328.238281 855.355469 1345.371094 863.75 1363.511719 C 943.585938 1496.941406 996.128906 1582.179688 1021.378906 1619.210938 C 1102.160156 1731.109375 1181.28125 1819.46875 1258.71875 1884.289062 L 1277.148438 1899.539062 L 1288.960938 1909.308594 L 1293.988281 1889.96875 L 1375.320312 1576.988281 C 1371.769531 1569.21875 1367.96875 1561.699219 1363.910156 1554.449219 L 1343.089844 1522.480469 L 1318.488281 1494.210938 L 1250.230469 1433.230469 C 1216.828125 1406.308594 1196.75 1391.121094 1189.980469 1387.679688 C 1163.101562 1369.859375 1136.089844 1355.269531 1108.929688 1343.921875 C 974.53125 1302.5 895.839844 1281.808594 872.855469 1281.859375 Z M 872.855469 1281.859375 "/>
<path fill-rule="nonzero" fill="rgb(45.872498%, 62.693787%, 14.892578%)" fill-opacity="1" d="M 2969.609375 1268.710938 L 2902.78125 1295.359375 C 2799.609375 1320.78125 2719.398438 1343.050781 2662.148438 1362.160156 C 2621.800781 1380.46875 2583.328125 1403.441406 2546.75 1431.070312 C 2449.140625 1513.03125 2387.839844 1605.511719 2362.859375 1708.5 L 2362.871094 1708.5 L 2656.269531 1828.160156 C 2665.789062 1793.5 2673.171875 1771.109375 2678.421875 1761.011719 C 2692.441406 1727.210938 2712.039062 1688.121094 2737.210938 1643.75 L 2804.320312 1530.5 C 2806.378906 1526.46875 2821.460938 1505.761719 2849.570312 1468.359375 C 2882.878906 1425.929688 2904.660156 1398.738281 2914.890625 1386.800781 L 2925.988281 1370.148438 C 2932.921875 1359.039062 2938.910156 1347.910156 2943.960938 1336.769531 Z M 2969.609375 1268.710938 "/>
<path fill-rule="nonzero" fill="rgb(27.050781%, 0%, 38.818359%)" fill-opacity="1" d="M 2496.660156 1972.160156 L 2489.859375 2095.109375 C 2456.949219 2342.871094 2359.570312 2541.160156 2197.730469 2689.988281 C 2034.769531 2838.707031 1842.640625 2899.265625 1621.339844 2871.667969 C 1410.121094 2832.894531 1241.011719 2718.539062 1114.03125 2528.589844 C 1073.351562 2467.191406 1039.800781 2400.269531 1013.390625 2327.820312 L 980.0625 2216.089844 C 961.714844 2139.191406 952.359375 2058.929688 951.984375 1975.289062 C 956.984375 1718.621094 1031.960938 1504.921875 1176.898438 1334.191406 C 1321.839844 1163.46875 1503.699219 1074.640625 1722.480469 1067.730469 C 1941.300781 1073.761719 2123.519531 1161.839844 2269.148438 1331.980469 C 2414.789062 1502.109375 2490.621094 1715.511719 2496.660156 1972.160156 "/>
<path fill-rule="nonzero" fill="rgb(21.556091%, 0%, 30.979919%)" fill-opacity="1" d="M 2144.851562 1213.390625 C 2282.890625 1387.738281 2355.578125 1564.421875 2362.890625 1743.441406 C 2377.960938 1955.789062 2324.730469 2176.441406 2203.199219 2405.398438 C 2143.761719 2523.109375 2055.628906 2622.601562 1938.789062 2703.878906 C 1850.109375 2764.476562 1740.191406 2794.90625 1609.039062 2795.171875 C 1592.429688 2795.207031 1575.46875 2794.757812 1558.171875 2793.820312 C 1462.378906 2775.652344 1385.96875 2738.640625 1328.960938 2682.800781 C 1317.070312 2675.550781 1282.75 2640.070312 1225.988281 2576.359375 C 1214.289062 2566.878906 1138.148438 2466.359375 997.570312 2274.769531 L 1013.390625 2327.820312 C 1039.800781 2400.269531 1073.351562 2467.191406 1114.03125 2528.589844 C 1241.011719 2718.539062 1410.121094 2832.894531 1621.339844 2871.667969 C 1656.519531 2876.054688 1690.960938 2878.214844 1724.660156 2878.144531 C 1902.988281 2877.785156 2060.679688 2815.066406 2197.730469 2689.988281 C 2359.570312 2541.160156 2456.949219 2342.871094 2489.859375 2095.109375 L 2496.660156 1972.160156 C 2490.621094 1715.511719 2414.789062 1502.109375 2269.148438 1331.980469 C 2230.320312 1286.621094 2188.890625 1247.089844 2144.859375 1213.390625 Z M 2144.851562 1213.390625 "/>
<path fill-rule="nonzero" fill="rgb(21.556091%, 0%, 30.979919%)" fill-opacity="1" d="M 1658.25 1160.28125 L 1659.871094 1160.859375 C 1698.171875 1178.960938 1715.339844 1212.878906 1711.378906 1262.640625 C 1708.359375 1284.28125 1701.710938 1304.910156 1691.421875 1324.550781 L 1612.488281 1449.101562 C 1597.75 1475.121094 1589.378906 1490.941406 1587.359375 1496.558594 C 1572.660156 1529.351562 1562.550781 1562.859375 1557.019531 1597.101562 C 1534.039062 1765.441406 1533.339844 1931.878906 1554.949219 2096.410156 C 1564.578125 2177.878906 1590.800781 2264.460938 1633.589844 2356.121094 C 1682.800781 2457.980469 1771.710938 2613.289062 1900.320312 2822.046875 C 1906.378906 2834.757812 1906.691406 2840.960938 1901.289062 2840.648438 C 1871.679688 2818.28125 1807.5 2740 1708.761719 2605.789062 C 1650.320312 2525.140625 1609.070312 2460.078125 1585 2410.628906 C 1525.519531 2293.378906 1482.679688 2134.050781 1456.488281 1932.640625 C 1442.601562 1828.46875 1439.460938 1742.398438 1447.078125 1674.429688 C 1453.988281 1590.300781 1470.589844 1492.128906 1496.878906 1379.921875 C 1536.929688 1231.398438 1590.71875 1158.179688 1658.25 1160.28125 "/>
<path fill-rule="nonzero" fill="rgb(39.598083%, 11.376953%, 51.756287%)" fill-opacity="1" d="M 1420.179688 1195.949219 L 1390.988281 1211.5 C 1274.25 1285.039062 1177.449219 1415.039062 1100.609375 1601.480469 C 1074.199219 1672.410156 1058.25 1740.691406 1052.75 1806.328125 C 1050.589844 1817.089844 1050.121094 1849.460938 1051.328125 1903.441406 C 1053.699219 1946.648438 1060.078125 1989.929688 1070.460938 2033.261719 C 1075.679688 2061.511719 1090.878906 2123.769531 1116.058594 2220.011719 C 1136.089844 2291.761719 1155.800781 2348.488281 1175.191406 2390.21875 C 1216 2469.570312 1267.359375 2541.429688 1329.289062 2605.820312 C 1448.101562 2722.171875 1579.578125 2761.296875 1723.730469 2723.210938 C 1720.929688 2708.410156 1704.410156 2679.601562 1674.171875 2636.78125 C 1600.539062 2545.269531 1546.960938 2474.660156 1513.410156 2424.929688 C 1474.179688 2345.578125 1447.671875 2267.71875 1433.878906 2191.328125 C 1414.019531 2074.46875 1406.871094 1901.429688 1412.421875 1672.210938 C 1416.449219 1625.71875 1424.910156 1577.789062 1437.808594 1528.410156 C 1463.421875 1441.011719 1486.46875 1377.039062 1506.949219 1336.5 L 1420.179688 1195.949219 "/>
<path fill-rule="nonzero" fill="rgb(39.598083%, 11.376953%, 51.756287%)" fill-opacity="1" d="M 1476.660156 1157.269531 L 1470.058594 1157.78125 C 1452.25 1160.480469 1432.921875 1173.820312 1412.078125 1197.800781 L 1484.488281 1366.378906 C 1496.300781 1352.460938 1505.769531 1340.640625 1512.890625 1330.921875 C 1520.199219 1318.46875 1526.679688 1306.359375 1532.328125 1294.558594 C 1536.289062 1287.28125 1540.050781 1276.640625 1543.609375 1262.628906 L 1544.738281 1255.21875 C 1545.269531 1250.289062 1545.359375 1245.410156 1544.980469 1240.558594 C 1543.519531 1222.101562 1534.820312 1202.421875 1518.871094 1181.539062 C 1505.960938 1165.328125 1491.890625 1157.238281 1476.660156 1157.269531 "/>
<path fill-rule="nonzero" fill="rgb(39.598083%, 11.376953%, 51.756287%)" fill-opacity="1" d="M 1881.179688 1222.140625 L 1771.890625 1239.839844 C 1674.320312 1428.28125 1617.878906 1548.269531 1602.570312 1599.800781 C 1571.71875 1713.128906 1561.140625 1834.488281 1570.828125 1963.890625 C 1578.808594 2081.101562 1604.78125 2193.769531 1648.71875 2301.910156 C 1672.378906 2356.558594 1714.941406 2430.589844 1776.421875 2524.011719 C 1812.039062 2574.710938 1848.921875 2618.589844 1887.058594 2655.640625 C 1994.609375 2596.421875 2065.78125 2530.109375 2100.558594 2456.710938 C 2163.289062 2304.421875 2204.339844 2187.75 2223.730469 2106.710938 C 2233.359375 2070.160156 2238.730469 1993.828125 2239.820312 1877.71875 C 2240.289062 1850.660156 2238.71875 1822.710938 2235.089844 1793.890625 L 2228.128906 1749.980469 C 2222.46875 1720.269531 2214.761719 1689.679688 2205.011719 1658.199219 C 2190.25 1604.011719 2157.828125 1528.769531 2107.738281 1432.488281 C 2065.601562 1362.441406 1990.078125 1292.320312 1881.179688 1222.140625 "/>
<path fill-rule="nonzero" fill="rgb(48.631287%, 19.604492%, 60.742188%)" fill-opacity="1" d="M 1256.621094 1611.910156 L 1228.789062 1613.269531 C 1218.421875 1630.25 1207.359375 1654.070312 1195.609375 1684.738281 C 1174.570312 1743.121094 1158.800781 1792.140625 1148.300781 1831.828125 C 1145.578125 1843.910156 1143.359375 1855.980469 1141.640625 1868.058594 L 1139.421875 1886.179688 C 1138.191406 1898.269531 1137.460938 1910.351562 1137.210938 1922.429688 C 1136.980469 1934.519531 1137.230469 1946.609375 1137.980469 1958.699219 L 1139.480469 1976.839844 L 1144.429688 2019.28125 C 1149.261719 2052.710938 1158.921875 2090.25 1173.398438 2131.890625 C 1185.179688 2167.871094 1207.191406 2219.300781 1239.421875 2286.210938 C 1262.429688 2331.328125 1296.820312 2374.070312 1342.589844 2414.429688 C 1344.429688 2414.878906 1345.269531 2410.160156 1345.109375 2400.238281 C 1338.660156 2366.160156 1335.53125 2343.589844 1335.691406 2332.519531 C 1339.71875 2243.960938 1341.269531 2183.949219 1340.359375 2152.480469 L 1324.589844 1879.941406 C 1326.378906 1839.289062 1325.429688 1798.46875 1321.738281 1757.460938 C 1317.109375 1719.328125 1310.238281 1688.558594 1301.148438 1665.160156 C 1296.609375 1653.460938 1291.5 1643.589844 1285.839844 1635.570312 L 1276.941406 1624.929688 C 1270.71875 1618.75 1263.949219 1614.410156 1256.621094 1611.910156 "/>
<path fill-rule="nonzero" fill="rgb(48.631287%, 19.604492%, 60.742188%)" fill-opacity="1" d="M 1823.519531 1386.859375 L 1822.320312 1386.871094 L 1818.128906 1387.019531 L 1768.199219 1459.859375 C 1756.960938 1477.910156 1746.75 1495.429688 1737.578125 1512.410156 C 1710.070312 1563.359375 1691.910156 1609.5 1683.089844 1650.839844 L 1679.460938 1671.101562 C 1677.25 1701.160156 1675.539062 1736.671875 1674.339844 1777.628906 C 1671.851562 1891.671875 1671.480469 1963.289062 1673.238281 1992.488281 C 1675.019531 2024.039062 1680 2059.261719 1688.179688 2098.160156 C 1697.441406 2137.78125 1712.789062 2178.640625 1734.21875 2220.75 C 1794.308594 2329.171875 1844.300781 2394.121094 1884.179688 2415.609375 C 1901.640625 2410.28125 1923.410156 2384.679688 1949.5 2338.800781 C 1977.140625 2289 1998.769531 2236.109375 2014.398438 2180.121094 C 2026.371094 2137.539062 2032.570312 2104.101562 2032.988281 2079.800781 C 2033.199219 2075.441406 2033.339844 2071 2033.410156 2066.5 C 2031.429688 2034.039062 2030.289062 1975.140625 2029.96875 1889.808594 C 2027.351562 1845.589844 2017.871094 1792.109375 2001.519531 1729.359375 C 1991.03125 1686.25 1975.140625 1626.890625 1953.851562 1551.308594 C 1948.359375 1532.328125 1941.070312 1511.71875 1932 1489.480469 C 1905.371094 1419.628906 1869.210938 1385.421875 1823.519531 1386.859375 "/>
<path fill-rule="nonzero" fill="rgb(28.24707%, 47.459412%, 4.704285%)" fill-opacity="1" d="M 1971.191406 869.058594 L 1958.878906 869.230469 C 1945.949219 869.109375 1928.441406 870.859375 1906.359375 874.460938 C 1905.371094 873.160156 1883.988281 879.960938 1842.21875 894.851562 L 1805.671875 911.019531 L 1772.460938 929.570312 L 1742.589844 950.511719 L 1716.050781 973.851562 C 1699.46875 990.199219 1685.121094 1008.140625 1672.988281 1027.679688 C 1660.859375 1047.21875 1650.960938 1068.351562 1643.269531 1091.070312 L 1665.988281 1117.109375 C 1665.398438 1116.609375 1666.410156 1116.328125 1669.039062 1116.261719 C 1668.621094 1115.941406 1674.859375 1116.5 1687.769531 1117.921875 C 1705.878906 1120.148438 1735.25 1124.621094 1775.878906 1131.339844 C 1784.480469 1132.058594 1813.140625 1140.148438 1861.890625 1155.621094 C 1873.589844 1158.429688 1884.46875 1159.839844 1894.550781 1159.839844 C 1908.441406 1160.378906 1923.730469 1156.441406 1940.441406 1148.019531 C 1967.480469 1135.710938 1989.289062 1123.039062 2005.859375 1110 C 2020.988281 1097.660156 2030.769531 1087.910156 2035.171875 1080.738281 C 2047.738281 1064.128906 2066.140625 1035.769531 2090.359375 995.671875 C 2097.589844 986.238281 2105.199219 977.671875 2113.191406 969.960938 C 2134.480469 947.929688 2166.46875 929.941406 2209.140625 916 C 2143.039062 896.839844 2092.488281 883.730469 2057.480469 876.660156 C 2031.78125 871.109375 2003.011719 868.570312 1971.191406 869.058594 "/>
<path fill-rule="nonzero" fill="rgb(28.24707%, 47.459412%, 4.704285%)" fill-opacity="1" d="M 1351.109375 990.460938 L 1347.519531 990.5 C 1338.261719 990.648438 1331.339844 991.328125 1326.75 992.539062 C 1321.371094 1008.121094 1317.839844 1023.128906 1316.160156 1037.570312 C 1314.03125 1060.371094 1315.300781 1079.609375 1319.980469 1095.300781 C 1322.53125 1103.71875 1327.679688 1112.488281 1335.441406 1121.621094 C 1343.191406 1130.738281 1353.558594 1140.21875 1366.519531 1150.058594 C 1392.699219 1167.988281 1416.511719 1181.378906 1437.949219 1190.210938 C 1451.519531 1196.019531 1465.480469 1199.960938 1479.820312 1202.019531 C 1497.609375 1204.308594 1518.511719 1205.289062 1542.539062 1204.941406 C 1560.609375 1204.75 1581.089844 1203.949219 1603.980469 1202.558594 L 1622.839844 1179.730469 C 1609.300781 1123.820312 1591.070312 1082.089844 1568.148438 1054.550781 C 1560.511719 1045.371094 1552.351562 1037.761719 1543.671875 1031.730469 C 1527.140625 1020.320312 1507.628906 1011.359375 1485.140625 1004.820312 C 1467.859375 1000.03125 1448.640625 996.941406 1427.511719 995.550781 C 1387.269531 991.671875 1361.808594 989.980469 1351.109375 990.460938 "/>
<path fill-rule="nonzero" fill="rgb(45.872498%, 62.693787%, 14.892578%)" fill-opacity="1" d="M 1977.890625 869 C 1975.671875 869.011719 1973.441406 869.03125 1971.191406 869.058594 L 1958.878906 869.230469 C 1958.359375 869.230469 1957.851562 869.230469 1957.320312 869.230469 C 1944.558594 869.25 1927.570312 871 1906.359375 874.460938 C 1906.269531 874.351562 1906.058594 874.300781 1905.71875 874.300781 C 1901.78125 874.308594 1880.621094 881.160156 1842.21875 894.851562 L 1805.671875 911.019531 L 1772.460938 929.570312 L 1742.589844 950.511719 L 1716.050781 973.851562 C 1699.46875 990.199219 1685.121094 1008.140625 1672.988281 1027.679688 C 1663.941406 1042.25 1656.140625 1057.710938 1649.558594 1074.050781 L 1661.179688 1111.601562 L 1664.628906 1122.75 C 1665.589844 1120.660156 1666.679688 1118.511719 1667.890625 1116.308594 C 1666.519531 1116.398438 1665.828125 1116.578125 1665.828125 1116.859375 C 1665.828125 1116.578125 1666.519531 1116.398438 1667.890625 1116.308594 C 1675.699219 1102.128906 1688.761719 1085.679688 1707.050781 1066.96875 C 1719.480469 1055.769531 1732.800781 1047.511719 1747.011719 1042.191406 C 1756.058594 1038.039062 1768.519531 1035.160156 1784.390625 1033.558594 C 1816.410156 1035.429688 1841.53125 1036.339844 1859.75 1036.308594 C 1877.308594 1036.269531 1888.449219 1035.351562 1893.179688 1033.539062 C 1908.871094 1027.46875 1920.578125 1021.859375 1928.320312 1016.699219 C 1984.519531 974.679688 2021.558594 949.960938 2039.429688 942.539062 C 2053.980469 936.558594 2068.019531 932.121094 2081.570312 929.21875 C 2128.648438 923.871094 2160.320312 919.078125 2176.601562 914.828125 C 2182.03125 913.421875 2185.738281 912.058594 2187.738281 910.769531 L 2188.558594 910.089844 C 2132.460938 894.121094 2088.769531 882.980469 2057.480469 876.660156 C 2033.589844 871.5 2007.058594 868.941406 1977.890625 869 Z M 1977.890625 869 "/>
<path fill-rule="nonzero" fill="rgb(45.872498%, 62.693787%, 14.892578%)" fill-opacity="1" d="M 1354.960938 990.378906 C 1353.511719 990.390625 1352.230469 990.410156 1351.109375 990.460938 L 1347.519531 990.5 C 1338.261719 990.648438 1331.339844 991.328125 1326.75 992.539062 C 1324.769531 998.261719 1323.050781 1003.898438 1321.570312 1009.46875 L 1431.410156 1024.851562 C 1457.78125 1032.46875 1477.828125 1040.769531 1491.570312 1049.738281 C 1517.988281 1068.488281 1539.109375 1087.78125 1554.921875 1107.609375 C 1563.640625 1118.089844 1571.839844 1129.269531 1579.519531 1141.148438 C 1583.871094 1146.058594 1593.738281 1164.449219 1609.140625 1196.320312 C 1609.621094 1197.308594 1610.109375 1198.320312 1610.589844 1199.328125 L 1612.230469 1192.578125 L 1618.980469 1164.640625 C 1605.898438 1116.261719 1588.949219 1079.558594 1568.148438 1054.550781 C 1560.511719 1045.371094 1552.351562 1037.761719 1543.671875 1031.730469 C 1527.140625 1020.320312 1507.628906 1011.359375 1485.140625 1004.820312 C 1467.859375 1000.03125 1448.640625 996.941406 1427.511719 995.550781 C 1391.488281 992.078125 1367.308594 990.359375 1354.960938 990.378906 Z M 1354.960938 990.378906 "/>
<path fill-rule="nonzero" fill="rgb(28.24707%, 47.459412%, 4.704285%)" fill-opacity="1" d="M 1646.648438 749.269531 L 1646.238281 749.269531 C 1599.789062 756.691406 1574.089844 768.878906 1569.148438 785.828125 C 1568.898438 792.378906 1569.339844 799.921875 1570.46875 808.449219 C 1579.511719 845.03125 1587.339844 887.398438 1593.949219 935.558594 L 1597.171875 974.449219 L 1605.070312 1115.039062 C 1605.621094 1132.71875 1605.039062 1148.898438 1603.339844 1163.570312 C 1603.96875 1172.359375 1604.589844 1186.351562 1605.191406 1205.539062 C 1605.398438 1209.75 1606.679688 1219.679688 1609.019531 1235.351562 L 1607.128906 1242.058594 L 1614.230469 1243.480469 C 1618.71875 1243.558594 1623.109375 1242.019531 1627.390625 1238.878906 C 1630.660156 1237.421875 1635.851562 1230.980469 1642.960938 1219.53125 L 1650.191406 1200.910156 C 1650.410156 1194.609375 1655.550781 1177.398438 1665.621094 1149.289062 L 1668.398438 1120.980469 L 1668.058594 1107.71875 C 1671.121094 1067.058594 1672.589844 1043.679688 1672.480469 1037.589844 C 1672.558594 1034 1672.539062 1031.300781 1672.429688 1029.480469 L 1669.140625 955.570312 C 1669.179688 945.839844 1669.691406 932.871094 1670.691406 916.660156 C 1671.519531 911.601562 1672.929688 906 1674.910156 899.878906 C 1685.101562 872.019531 1690.308594 856.851562 1690.550781 854.390625 C 1693.941406 836.808594 1696.371094 822.910156 1697.859375 812.679688 C 1699.519531 801.269531 1700.589844 791.140625 1701.078125 782.300781 C 1701.589844 771.960938 1700.390625 766.339844 1697.480469 765.398438 C 1673.210938 755.871094 1656.261719 750.488281 1646.648438 749.269531 "/>
<path fill-rule="nonzero" fill="rgb(28.24707%, 47.459412%, 4.704285%)" fill-opacity="1" d="M 1660.289062 1135.179688 L 1617.109375 1225.480469 C 1616.589844 1235.621094 1620.210938 1240.21875 1627.949219 1239.269531 L 1633.820312 1238.101562 C 1637.570312 1237.21875 1640.988281 1236.148438 1644.070312 1234.871094 C 1647.160156 1233.601562 1649.921875 1232.121094 1652.351562 1230.449219 C 1657.148438 1227.210938 1660.730469 1222.960938 1663.109375 1217.691406 C 1663.539062 1216.789062 1663.921875 1215.679688 1664.25 1214.378906 L 1667.390625 1199.609375 L 1667.730469 1173.890625 C 1667.46875 1170.480469 1667 1166.960938 1666.339844 1163.359375 C 1662.800781 1149.101562 1660.789062 1139.699219 1660.289062 1135.179688 "/>
<path fill-rule="nonzero" fill="rgb(52.146912%, 70.117188%, 18.821716%)" fill-opacity="1" d="M 1646.648438 749.269531 L 1646.238281 749.269531 C 1599.789062 756.691406 1574.089844 768.878906 1569.148438 785.828125 C 1568.898438 792.378906 1569.339844 799.921875 1570.46875 808.449219 C 1579.511719 845.03125 1587.339844 887.398438 1593.949219 935.558594 L 1597.171875 974.449219 L 1605.070312 1115.039062 C 1605.621094 1132.71875 1605.039062 1148.898438 1603.339844 1163.570312 C 1603.96875 1172.359375 1604.589844 1186.351562 1605.191406 1205.539062 C 1605.398438 1209.75 1606.679688 1219.679688 1609.019531 1235.351562 L 1607.128906 1242.058594 L 1614.230469 1243.480469 C 1614.351562 1243.480469 1614.460938 1243.480469 1614.578125 1243.480469 C 1617.839844 1243.480469 1621.039062 1242.621094 1624.179688 1240.921875 C 1621.859375 1227.539062 1621.46875 1208.648438 1623.03125 1184.238281 L 1618.378906 1143.960938 L 1620.289062 1100.578125 L 1616.730469 1064.308594 C 1617.800781 1056.789062 1618.820312 1039.269531 1619.789062 1011.769531 C 1617.21875 983.019531 1616.550781 964.679688 1617.769531 956.738281 L 1606.851562 875.890625 L 1592.5 840.71875 C 1591.511719 834.441406 1591.648438 827.300781 1592.929688 819.308594 C 1593.339844 814.640625 1596.46875 804.921875 1602.328125 790.140625 C 1604.898438 784.730469 1607.78125 780.03125 1610.988281 776.03125 C 1615.820312 768.621094 1625.070312 762.910156 1638.769531 758.898438 C 1640.960938 758.558594 1643.25 758.378906 1645.621094 758.378906 C 1657.46875 758.359375 1671.53125 762.550781 1687.808594 770.960938 C 1693.609375 774.199219 1697.960938 779.25 1700.839844 786.101562 C 1700.929688 784.808594 1701.011719 783.539062 1701.078125 782.300781 C 1701.589844 771.960938 1700.390625 766.339844 1697.480469 765.398438 C 1673.210938 755.871094 1656.261719 750.488281 1646.648438 749.269531 Z M 1646.648438 749.269531 "/>
<path fill-rule="nonzero" fill="rgb(39.598083%, 56.054688%, 9.008789%)" fill-opacity="1" d="M 1641.011719 765.839844 L 1639.738281 765.839844 C 1617.03125 771.410156 1602.648438 778.679688 1596.609375 787.648438 C 1595.078125 790.179688 1594.148438 792.859375 1593.828125 795.710938 L 1591.390625 832.851562 C 1591.230469 835.328125 1592.308594 842.941406 1594.589844 855.679688 C 1604.96875 880.039062 1610.660156 896.640625 1611.640625 905.480469 L 1611.789062 908.421875 L 1610.359375 943.140625 C 1611.089844 975.070312 1611.039062 993.820312 1610.179688 999.410156 C 1610.210938 1004.609375 1611.730469 1017.828125 1614.710938 1039.058594 L 1615.558594 1093.960938 C 1616.351562 1104.839844 1617.550781 1115.179688 1619.148438 1125.011719 L 1619.171875 1174.238281 L 1620.71875 1195.359375 L 1619.960938 1218.351562 C 1621.480469 1219.351562 1623.480469 1219.910156 1625.960938 1220.039062 C 1628.519531 1220.351562 1631.921875 1218.839844 1636.160156 1215.488281 L 1658.660156 1213.511719 C 1657.789062 1210.679688 1655.71875 1206.980469 1652.441406 1202.421875 C 1650.660156 1199.480469 1644.691406 1192.421875 1634.53125 1181.238281 C 1633.039062 1176.941406 1631.949219 1171.839844 1631.28125 1165.910156 L 1630.960938 1132.359375 L 1636.960938 1045.128906 L 1638.058594 1037.539062 L 1638.308594 1023 C 1638.320312 1020.03125 1638.210938 1017.480469 1637.960938 1015.339844 L 1631.679688 980.988281 C 1631.429688 978.648438 1631.351562 974.351562 1631.449219 968.078125 C 1631.648438 962.921875 1632.898438 953.339844 1635.210938 939.351562 C 1634.660156 924.050781 1634.671875 914.890625 1635.230469 911.871094 L 1640.878906 881.828125 L 1640.210938 871.570312 C 1638.460938 865.359375 1637.308594 859.910156 1636.78125 855.230469 C 1636.429688 852.28125 1636.328125 849.328125 1636.480469 846.371094 C 1636.878906 840.050781 1641.601562 829.730469 1650.628906 815.390625 C 1653.441406 810.820312 1663.410156 801.25 1680.570312 786.679688 C 1684.011719 781.710938 1685.699219 778.46875 1685.640625 776.980469 C 1678.679688 770.179688 1663.808594 766.46875 1641.011719 765.839844 "/>
<path fill-rule="nonzero" fill="rgb(39.598083%, 56.054688%, 9.008789%)" fill-opacity="1" d="M 1660.070312 760.03125 L 1659.828125 760.03125 C 1655.96875 760.5 1650.421875 760.808594 1643.171875 760.941406 C 1636.261719 761.78125 1632.480469 762.28125 1631.820312 762.441406 C 1629.128906 763.140625 1626.671875 763.929688 1624.429688 764.808594 L 1621.160156 766.230469 C 1619.050781 767.230469 1617.109375 768.351562 1615.328125 769.570312 C 1614.238281 770.050781 1611.929688 772.140625 1608.421875 775.859375 C 1605.769531 779.191406 1604.269531 781.898438 1603.929688 783.988281 C 1602.839844 787.660156 1602.878906 791.5 1604.050781 795.488281 L 1604.921875 797.160156 L 1605.460938 797.691406 L 1606.070312 798 C 1606.191406 798.070312 1606.96875 798.140625 1608.421875 798.210938 C 1608.871094 798.210938 1609.238281 798.160156 1609.539062 798.058594 L 1621.511719 793.53125 C 1625.710938 791.851562 1631.089844 789.238281 1637.660156 785.691406 L 1658.96875 776.679688 L 1660.960938 776.171875 C 1661.601562 776.039062 1662.210938 775.949219 1662.800781 775.898438 C 1667.859375 775.671875 1671.878906 775.378906 1674.820312 775.019531 L 1680.441406 775 L 1702.429688 778.851562 C 1701.640625 778.488281 1700.679688 777.898438 1699.558594 777.101562 C 1697.480469 775.53125 1695.808594 774.179688 1694.558594 773.03125 L 1691.988281 771.421875 C 1688.609375 769.308594 1684.71875 767.230469 1680.308594 765.191406 L 1673.929688 762.539062 C 1672.5 762.011719 1671.050781 761.5 1669.589844 761.03125 C 1664.738281 760.28125 1661.570312 759.949219 1660.070312 760.03125 "/>
<path fill-rule="nonzero" fill="rgb(39.598083%, 56.054688%, 9.008789%)" fill-opacity="1" d="M 1643.019531 754.210938 L 1641.191406 754.25 C 1640 754.308594 1638.859375 754.421875 1637.789062 754.589844 C 1635.191406 755.109375 1633.699219 755.488281 1633.320312 755.730469 C 1632.410156 756.070312 1631.558594 756.460938 1630.769531 756.910156 C 1629.070312 757.851562 1627.140625 759.109375 1624.988281 760.679688 C 1621.539062 763.480469 1619.160156 765.710938 1617.839844 767.371094 C 1613.871094 772.03125 1611.640625 775.140625 1611.148438 776.71875 C 1609.738281 780.480469 1609.890625 783.679688 1611.578125 786.308594 C 1612.148438 787.230469 1615.609375 790.609375 1621.980469 796.46875 L 1678.421875 763.050781 C 1676.980469 761.210938 1675.238281 760.089844 1673.179688 759.660156 C 1671.96875 759.390625 1669.929688 759.28125 1667.078125 759.351562 C 1663.089844 758.480469 1659.839844 757.570312 1657.320312 756.601562 L 1644.039062 754.210938 L 1643.019531 754.210938 "/>
<path fill-rule="nonzero" fill="rgb(39.598083%, 56.054688%, 9.008789%)" fill-opacity="1" d="M 1662.441406 1206.378906 L 1621.328125 1210.171875 C 1620.769531 1211.421875 1620.300781 1212.648438 1619.910156 1213.859375 C 1619.109375 1216.859375 1618.730469 1218.628906 1618.769531 1219.191406 C 1618.539062 1221.511719 1618.640625 1223.75 1619.109375 1225.929688 C 1619.890625 1229.128906 1620.859375 1231.691406 1622.039062 1233.589844 C 1622.621094 1234.550781 1623.25 1235.339844 1623.941406 1235.96875 L 1625 1236.789062 C 1625.730469 1237.261719 1626.511719 1237.570312 1627.339844 1237.710938 C 1630.039062 1236.589844 1633.871094 1234.558594 1638.808594 1231.601562 C 1641.519531 1229.890625 1643.96875 1228.109375 1646.140625 1226.25 C 1650.121094 1222.160156 1653.359375 1219.101562 1655.851562 1217.070312 C 1655.808594 1216.800781 1657.390625 1214.808594 1660.609375 1211.089844 C 1661.050781 1209.761719 1661.660156 1208.191406 1662.441406 1206.378906 "/>
<path fill-rule="nonzero" fill="rgb(27.050781%, 0%, 38.818359%)" fill-opacity="1" d="M 2710.320312 1646.089844 L 2710.078125 1645.949219 C 2678.058594 1665.011719 2648.75 1670.148438 2622.171875 1661.351562 C 2612.761719 1658.011719 2605.070312 1652.929688 2599.078125 1646.121094 C 2576.699219 1600.671875 2558.660156 1575.238281 2544.960938 1569.828125 C 2497.921875 1555.238281 2449.96875 1546.160156 2401.128906 1542.589844 C 2304.988281 1534.710938 2202.109375 1550.351562 2092.46875 1589.53125 C 1894.539062 1662.738281 1733.300781 1800.710938 1608.738281 2003.429688 C 1556.75 2103.519531 1529.199219 2165.441406 1526.089844 2189.210938 C 1512.269531 2232.839844 1501.5 2278.03125 1493.75 2324.78125 C 1475.148438 2416.828125 1474.929688 2518.058594 1493.078125 2628.460938 C 1533.269531 2824.789062 1640.300781 2976.703125 1814.179688 3084.207031 C 1991.339844 3181.058594 2187.039062 3191.527344 2401.269531 3115.621094 C 2595.449219 3031.371094 2743.511719 2910.140625 2845.449219 2751.929688 C 2972.351562 2553.820312 3023.730469 2348.21875 2999.589844 2135.128906 C 2992.351562 2033.03125 2956.308594 1931.359375 2891.480469 1830.101562 C 2858.359375 1773.609375 2797.96875 1712.28125 2710.320312 1646.089844 Z M 2710.320312 1646.089844 "/>
<path fill-rule="nonzero" fill="rgb(79.6875%, 48.631287%, 0%)" fill-opacity="1" d="M 2696.710938 1667.828125 L 2696.480469 1667.691406 C 2665.539062 1686.089844 2637.238281 1691.039062 2611.570312 1682.539062 C 2602.480469 1679.308594 2595.050781 1674.398438 2589.269531 1667.828125 C 2567.671875 1623.921875 2550.25 1599.359375 2537.019531 1594.121094 C 2491.589844 1580.019531 2445.289062 1571.238281 2398.109375 1567.78125 C 2305.269531 1560.128906 2205.890625 1575.210938 2099.980469 1613.019531 C 1908.800781 1683.660156 1753.019531 1816.871094 1632.660156 2012.640625 C 1582.421875 2109.28125 1555.789062 2169.089844 1552.78125 2192.039062 C 1539.421875 2234.179688 1529 2277.820312 1521.511719 2322.96875 C 1503.511719 2411.871094 1503.269531 2509.640625 1520.769531 2616.28125 C 1559.519531 2805.90625 1662.859375 2952.660156 1830.769531 3056.542969 C 2001.839844 3150.136719 2190.851562 3160.308594 2397.789062 3087.058594 C 2585.359375 3005.746094 2728.390625 2888.699219 2826.890625 2735.921875 C 2949.519531 2544.621094 2999.199219 2346.070312 2975.949219 2140.238281 C 2968.988281 2041.628906 2934.21875 1943.421875 2871.628906 1845.609375 C 2839.660156 1791.039062 2781.351562 1731.78125 2696.710938 1667.828125 Z M 2696.710938 1667.828125 "/>
<path fill-rule="nonzero" fill="rgb(92.96875%, 64.646912%, 19.993591%)" fill-opacity="1" d="M 2687.679688 1709.78125 L 2687.460938 1709.640625 C 2657.5 1727.070312 2630.199219 1731.578125 2605.558594 1723.160156 C 2596.839844 1719.960938 2589.730469 1715.160156 2584.230469 1708.78125 C 2563.828125 1666.308594 2547.289062 1642.480469 2534.589844 1637.320312 C 2490.980469 1623.320312 2446.480469 1614.441406 2401.078125 1610.671875 C 2311.75 1602.441406 2215.921875 1616.039062 2113.589844 1651.460938 C 1928.839844 1717.71875 1777.609375 1844.539062 1659.898438 2031.929688 C 1610.621094 2124.53125 1584.429688 2181.859375 1581.308594 2203.941406 C 1568.058594 2244.390625 1557.621094 2286.320312 1549.988281 2329.730469 C 1531.828125 2415.160156 1530.691406 2509.300781 1546.558594 2612.148438 C 1582.109375 2795.101562 1680.25 2937.375 1840.96875 3038.964844 C 2004.839844 3130.671875 2186.738281 3142.21875 2386.679688 3073.601562 C 2568.050781 2997.042969 2706.871094 2885.664062 2803.128906 2739.460938 C 2922.980469 2556.398438 2972.671875 2365.660156 2952.191406 2167.261719 C 2946.390625 2072.238281 2913.820312 1977.351562 2854.460938 1882.578125 C 2824.179688 1829.738281 2768.589844 1772.140625 2687.679688 1709.78125 Z M 2687.679688 1709.78125 "/>
<path fill-rule="nonzero" fill="rgb(36.083984%, 21.972656%, 7.446289%)" fill-opacity="1" d="M 2462.628906 2515.570312 L 2434.851562 2562.128906 C 2373.269531 2652.890625 2303.191406 2714.25 2224.621094 2746.210938 C 2145.75 2777.945312 2076.828125 2770.894531 2017.859375 2725.058594 C 1964.179688 2676.488281 1938.679688 2605.320312 1941.359375 2511.570312 C 1944.328125 2417.320312 1976.460938 2321.761719 2037.730469 2224.910156 C 2099.320312 2134.140625 2169.398438 2072.78125 2247.96875 2040.828125 C 2326.839844 2009.089844 2395.761719 2016.140625 2454.730469 2061.980469 C 2508.410156 2110.550781 2533.910156 2181.710938 2531.230469 2275.46875 C 2530.269531 2305.71875 2526.050781 2336.96875 2518.578125 2369.238281 L 2504.910156 2417.820312 C 2494.148438 2450.53125 2480.058594 2483.109375 2462.628906 2515.570312 "/>
<path fill-rule="nonzero" fill="rgb(46.263123%, 31.762695%, 14.892578%)" fill-opacity="1" d="M 2406.449219 2479.949219 L 2383.96875 2517.421875 C 2333.949219 2590.359375 2276.589844 2639.289062 2211.851562 2664.230469 C 2146.859375 2688.980469 2089.691406 2682.339844 2040.320312 2644.320312 C 1995.308594 2604.160156 1973.390625 2546 1974.558594 2469.859375 C 1975.03125 2445.289062 1978.179688 2419.941406 1984 2393.828125 L 1994.789062 2354.53125 C 2003.339844 2328.101562 2014.648438 2301.808594 2028.730469 2275.660156 C 2073.429688 2196.230469 2127.941406 2139.511719 2192.25 2105.5 C 2256.570312 2071.488281 2316.03125 2067.941406 2370.628906 2094.851562 C 2423.03125 2125.808594 2452.609375 2177.511719 2459.351562 2249.960938 C 2466.089844 2322.398438 2448.460938 2399.058594 2406.449219 2479.949219 "/>
<path fill-rule="nonzero" fill="rgb(56.054688%, 39.208984%, 19.993591%)" fill-opacity="1" d="M 2197.949219 2364.058594 L 2188.621094 2384.089844 C 2168.410156 2423.808594 2147.019531 2453.300781 2124.449219 2472.570312 C 2101.808594 2491.78125 2083.359375 2495.539062 2069.089844 2483.839844 C 2056.371094 2470.621094 2052.160156 2446.328125 2056.480469 2410.949219 C 2057.898438 2399.53125 2060.25 2387.429688 2063.511719 2374.640625 L 2069.089844 2355.171875 C 2073.261719 2341.921875 2078.339844 2328.398438 2084.320312 2314.621094 C 2103.121094 2272.53125 2123.96875 2239.769531 2146.871094 2216.351562 C 2169.769531 2192.929688 2189.5 2184.191406 2206.058594 2190.128906 C 2221.691406 2198.199219 2228.738281 2218.589844 2227.21875 2251.320312 C 2225.691406 2284.03125 2215.929688 2321.621094 2197.949219 2364.058594 "/>
<path fill-rule="nonzero" fill="rgb(95.701599%, 72.068787%, 34.104919%)" fill-opacity="1" d="M 2410.761719 1715.269531 L 2409.398438 1713.53125 C 2342.820312 1661.871094 2233.570312 1669.929688 2081.660156 1737.71875 C 1954.800781 1801.199219 1850.320312 1893.519531 1768.199219 2014.679688 C 1691.128906 2121.710938 1643.480469 2251.570312 1625.25 2404.25 C 1615.179688 2489.621094 1613.539062 2570.269531 1620.328125 2646.210938 C 1622.730469 2691.21875 1642.761719 2738.539062 1680.429688 2788.152344 C 1710.058594 2825.558594 1747.898438 2855.511719 1793.941406 2878.015625 C 1835.269531 2895.585938 1861.109375 2894.632812 1871.480469 2875.164062 C 1879.898438 2864.980469 1886.039062 2841 1889.910156 2803.21875 L 1902.570312 2582.589844 C 1905.878906 2539.289062 1911.109375 2496.320312 1918.25 2453.679688 C 1929.550781 2386.199219 1946.058594 2327.429688 1967.78125 2277.351562 C 1986.671875 2239.089844 2002.039062 2212.910156 2013.890625 2198.800781 C 2028.378906 2179.21875 2044.480469 2161.320312 2062.210938 2145.101562 C 2068.308594 2138.511719 2089.109375 2121.671875 2124.609375 2094.570312 C 2220.101562 2027.929688 2270.789062 1991.210938 2276.648438 1984.410156 C 2307.058594 1959.25 2329.769531 1936.929688 2344.769531 1917.441406 C 2374.851562 1879.140625 2396.671875 1838.601562 2410.230469 1795.820312 C 2421.210938 1762.148438 2421.378906 1735.300781 2410.761719 1715.269531 "/>
<path fill-rule="nonzero" fill="rgb(95.701599%, 72.068787%, 34.104919%)" fill-opacity="1" d="M 2801.398438 1987.058594 L 2798.75 1981.179688 C 2778.539062 1931.921875 2733.808594 1887.210938 2664.570312 1847.058594 C 2623.25 1825.230469 2584.820312 1834.789062 2549.289062 1875.75 C 2521.621094 1909.519531 2507.898438 1945.328125 2508.148438 1983.199219 C 2510.480469 2002.898438 2512.839844 2016.378906 2515.230469 2023.621094 L 2551.769531 2146.308594 C 2557.238281 2167.019531 2557.769531 2202.519531 2553.371094 2252.820312 C 2543.210938 2364.011719 2520.378906 2451.589844 2484.878906 2515.570312 C 2443.441406 2591.070312 2356.570312 2675.710938 2224.289062 2769.515625 C 2193.03125 2790.183594 2169.609375 2802.980469 2154.03125 2807.902344 C 2132.25 2817.117188 2085.660156 2829.578125 2014.261719 2845.285156 C 2003.378906 2848.371094 1993.921875 2853.253906 1985.871094 2859.929688 C 1969.808594 2872.351562 1969.429688 2893.917969 1984.71875 2924.632812 C 2026.070312 3020.859375 2105.78125 3061.445312 2223.828125 3046.390625 C 2436.339844 3004.484375 2584.480469 2936.996094 2668.25 2843.929688 C 2739.820312 2764.9375 2794.570312 2605.429688 2832.511719 2365.410156 C 2854.609375 2224.648438 2844.238281 2098.53125 2801.398438 1987.058594 "/>
<path fill-rule="nonzero" fill="rgb(97.65625%, 76.951599%, 43.138123%)" fill-opacity="1" d="M 2011.539062 1890.609375 L 2009.539062 1891.351562 C 1990.03125 1898.558594 1976.191406 1905.53125 1968.03125 1912.28125 C 1954.320312 1922.179688 1938.71875 1937.171875 1921.21875 1957.238281 C 1905.851562 1974.398438 1888.039062 1999.160156 1867.808594 2031.5 L 1854.871094 2053.859375 C 1846.539062 2068.960938 1838.769531 2084.371094 1831.550781 2100.109375 C 1804.390625 2158.160156 1781.921875 2229.230469 1764.148438 2313.300781 C 1749.480469 2386.019531 1750.988281 2419.390625 1768.679688 2413.398438 C 1771.921875 2412.160156 1775.089844 2409.980469 1778.199219 2406.878906 L 1800.101562 2382.671875 C 1811.238281 2369.941406 1827.261719 2349.78125 1848.171875 2322.179688 C 1855.480469 2312.589844 1867.371094 2296.410156 1883.859375 2273.621094 C 1949.089844 2181.859375 1983.390625 2133.859375 1986.769531 2129.648438 C 1993.101562 2120.988281 1999.480469 2112.371094 2005.921875 2103.78125 C 2042.988281 2055.75 2061.800781 2031.011719 2062.351562 2029.578125 C 2074.730469 2012.429688 2083.53125 1998.320312 2088.75 1987.261719 C 2093.539062 1977.949219 2095.988281 1967.320312 2096.089844 1955.371094 C 2096.679688 1948.460938 2092.191406 1938.089844 2082.640625 1924.25 C 2062.089844 1900.261719 2038.390625 1889.050781 2011.539062 1890.609375 "/>
<path fill-rule="nonzero" fill="rgb(97.65625%, 76.951599%, 43.138123%)" fill-opacity="1" d="M 2729.171875 2366.378906 L 2728.621094 2364.96875 C 2724.871094 2349.441406 2712.320312 2331.371094 2690.980469 2310.75 C 2668.089844 2292.289062 2653.171875 2285.949219 2646.21875 2291.75 C 2643.21875 2295.328125 2641.660156 2299.511719 2641.519531 2304.28125 C 2640.898438 2305.28125 2641.769531 2314.039062 2644.140625 2330.550781 C 2644.429688 2335.910156 2644.230469 2342.429688 2643.558594 2350.089844 C 2641.660156 2366.050781 2639.121094 2378.21875 2635.910156 2386.578125 C 2629.441406 2403.871094 2618.339844 2428.71875 2602.609375 2461.121094 C 2584.570312 2496.359375 2573.351562 2517.300781 2568.96875 2523.921875 C 2548.46875 2557.75 2535.738281 2577.761719 2530.800781 2583.941406 C 2510.109375 2612.960938 2493.230469 2634.589844 2480.179688 2648.839844 C 2469.980469 2660.160156 2459.339844 2671.070312 2448.28125 2681.589844 C 2397.359375 2728.988281 2369.730469 2754.101562 2365.421875 2756.921875 C 2357.820312 2764.34375 2353.558594 2768.941406 2352.640625 2770.710938 C 2344.5 2781.78125 2341.800781 2791.746094 2344.519531 2800.609375 C 2356.671875 2822.828125 2382.808594 2833.148438 2422.949219 2831.5625 C 2450.480469 2829.585938 2476.011719 2814.542969 2499.539062 2786.429688 C 2529.171875 2750.230469 2557.71875 2709.519531 2585.179688 2664.300781 C 2589.859375 2657.128906 2602.910156 2635 2624.351562 2597.910156 L 2674.730469 2508.351562 C 2694.671875 2474.269531 2705.28125 2455.839844 2706.550781 2453.070312 C 2715.488281 2437.328125 2722.78125 2420.570312 2728.421875 2402.789062 C 2731.488281 2389.609375 2731.738281 2377.46875 2729.171875 2366.378906 "/>
</svg>
