<svg width="2609" height="2575" viewBox="0 0 2609 2575" fill="none" xmlns="http://www.w3.org/2000/svg">
<g filter="url(#filter0_d_208_476)">
<path d="M2604.57 2149.45L2593.23 2205.81C2539.2 2319.41 2380.59 2410.51 2117.43 2479.09C1852.43 2547.62 1540.28 2575.82 1180.97 2563.7C838.039 2546.43 563.691 2494.43 357.93 2407.7C292.004 2379.66 237.684 2349.07 194.973 2315.94L141.105 2264.81C111.496 2229.62 96.4883 2192.86 96.0781 2154.54C104.809 2036.92 227.062 1938.82 462.84 1860.25C698.629 1781.67 994.172 1740.54 1349.48 1736.86C1704.81 1739.1 2000.52 1779.03 2236.62 1856.65C2472.72 1934.27 2595.37 2031.87 2604.57 2149.45Z" fill="#DADADA"/>
<path d="M2334.91 517.602L2262.78 546.359C2159.61 571.781 2079.4 594.051 2022.15 613.16C1981.8 631.469 1943.33 654.441 1906.75 682.07C1804.06 768.301 1741.56 866.16 1719.25 975.672C1714.29 1000.21 1715.37 1025.43 1722.5 1051.33L1728.99 1070.89C1734.07 1084 1740.66 1097.3 1748.77 1110.75C1756.88 1124.21 1766.49 1137.84 1777.63 1151.64L2133.33 1438.25C2235.67 1349.21 2296.15 1292.92 2314.76 1269.4C2344.19 1235.11 2366.27 1190.77 2380.99 1136.38C2391.34 1079.67 2394.2 1027.62 2389.57 980.238L2345.98 701.699L2334.91 517.602Z" fill="#48790C"/>
<path d="M31.2116 1169.72L30.485 1169.78C28.5748 1170.08 26.8405 1171.57 25.2819 1174.24L13.11 1234.91L6.22719 1293.18C3.40297 1331.22 4.10609 1367.66 8.33656 1402.5C12.567 1437.33 20.3248 1470.56 31.61 1502.19L51.1881 1548.43C66.0006 1578.46 84.3405 1606.88 106.212 1633.7C141.29 1670.14 177.059 1702.53 213.528 1730.86L268.751 1770.31C305.911 1794.57 343.766 1814.78 382.321 1830.94C420.872 1847.09 460.11 1859.18 500.059 1867.21L560.481 1876.22C606.532 1879.73 642.442 1880.11 668.231 1877.37L766.161 1713.98C755.782 1645.83 738.212 1585.37 713.45 1532.6L693.532 1494.47C679.36 1470 663.38 1447.46 645.61 1426.85C606.09 1378.39 548.54 1338.74 472.95 1307.91L433.84 1293.01C300.919 1256.22 215.512 1231.55 177.626 1219.01C120.942 1201.23 72.1373 1184.8 31.2116 1169.72Z" fill="#48790C"/>
<path d="M227.812 533.43L225.871 533.461C220.871 533.629 217.379 534.422 215.395 535.84L188.051 632.762L173.906 725.57L172.957 814.269L185.199 898.859L210.641 979.34L249.277 1055.7L301.109 1127.95L366.141 1196.09L444.359 1260.12L769.68 1075.21C774.59 1000.42 769.441 935.519 754.25 880.519C746.648 853.019 736.539 828 723.91 805.449L703.09 773.48L678.488 745.211L610.23 684.23C576.828 657.308 556.75 642.121 549.98 638.68C523.102 620.859 496.09 606.269 468.93 594.922C321.77 549.558 241.395 529.07 227.812 533.43Z" fill="#48790C"/>
<path d="M31.2109 1169.72L30.4844 1169.78C28.5742 1170.08 26.8398 1171.57 25.2812 1174.24L23.0234 1185.49C24.6484 1190.82 26.7187 1196.27 29.2305 1201.82C43.5391 1233.76 72.3672 1274.47 115.719 1323.93C163.887 1372.89 211.66 1416.4 259.043 1454.46L329.824 1507.46L400.02 1552.29L469.621 1588.94L538.641 1617.41L607.059 1637.71L674.898 1649.84C707.539 1652.59 733.762 1653.95 753.57 1653.91C753.941 1653.91 754.309 1653.91 754.68 1653.91C766.781 1653.85 776.422 1653.26 783.621 1652.13L788.781 1651.7L738.27 1595.19L501.16 1329.96L477.699 1309.87C476.129 1309.21 474.539 1308.56 472.949 1307.91L433.84 1293.01C300.918 1256.22 215.512 1231.55 177.625 1219.01C120.941 1201.23 72.1367 1184.8 31.2109 1169.72Z" fill="#75A026"/>
<path d="M232.855 532.859C230.672 532.859 228.992 533.051 227.812 533.43L225.871 533.461C220.871 533.629 217.379 534.422 215.395 535.84L207.707 563.09C210.008 579.238 215.355 596.371 223.75 614.512C303.586 747.941 356.129 833.18 381.379 870.211C462.16 982.109 541.281 1070.47 618.719 1135.29L637.148 1150.54L648.961 1160.31L653.988 1140.97L735.32 827.988C731.77 820.219 727.969 812.699 723.91 805.449L703.09 773.481L678.488 745.211L610.23 684.231C576.828 657.309 556.75 642.121 549.98 638.68C523.102 620.859 496.09 606.27 468.93 594.922C334.531 553.5 255.84 532.809 232.855 532.859Z" fill="#75A026"/>
<path d="M2329.61 519.711L2262.78 546.359C2159.61 571.781 2079.4 594.051 2022.15 613.16C1981.8 631.469 1943.33 654.441 1906.75 682.07C1809.14 764.031 1747.84 856.512 1722.86 959.5H1722.87L2016.27 1079.16C2025.79 1044.5 2033.17 1022.11 2038.42 1012.01C2052.44 978.211 2072.04 939.121 2097.21 894.75L2164.32 781.5C2166.38 777.469 2181.46 756.762 2209.57 719.359C2242.88 676.93 2264.66 649.738 2274.89 637.801L2285.99 621.148C2292.92 610.039 2298.91 598.91 2303.96 587.77L2329.61 519.711Z" fill="#75A026"/>
<path d="M1856.66 1223.16L1849.86 1346.11C1816.95 1593.87 1719.57 1792.16 1557.73 1940.99C1394.77 2089.71 1202.64 2150.27 981.34 2122.67C770.121 2083.89 601.012 1969.54 474.031 1779.59C433.352 1718.19 399.801 1651.27 373.391 1578.82L340.062 1467.09C321.715 1390.19 312.359 1309.93 311.984 1226.29C316.984 969.621 391.961 755.922 536.898 585.191C681.84 414.469 863.699 325.641 1082.48 318.73C1301.3 324.762 1483.52 412.84 1629.15 582.98C1774.79 753.109 1850.62 966.512 1856.66 1223.16Z" fill="#450063"/>
<path d="M1504.85 464.391C1642.89 638.738 1715.58 815.422 1722.89 994.441C1737.96 1206.79 1684.73 1427.44 1563.2 1656.4C1503.76 1774.11 1415.63 1873.6 1298.79 1954.88C1210.11 2015.48 1100.19 2045.91 969.039 2046.17C952.43 2046.21 935.469 2045.76 918.172 2044.82C822.379 2026.65 745.969 1989.64 688.961 1933.8C677.07 1926.55 642.75 1891.07 585.988 1827.36C574.289 1817.88 498.148 1717.36 357.57 1525.77L373.391 1578.82C399.801 1651.27 433.352 1718.19 474.031 1779.59C601.012 1969.54 770.121 2083.89 981.34 2122.67C1016.52 2127.05 1050.96 2129.21 1084.66 2129.14C1262.99 2128.79 1420.68 2066.07 1557.73 1940.99C1719.57 1792.16 1816.95 1593.87 1849.86 1346.11L1856.66 1223.16C1850.62 966.512 1774.79 753.109 1629.15 582.98C1590.32 537.621 1548.89 498.09 1504.86 464.391H1504.85Z" fill="#37004F"/>
<path d="M1018.25 411.281L1019.87 411.859C1058.17 429.961 1075.34 463.879 1071.38 513.641C1068.36 535.281 1061.71 555.91 1051.42 575.551L972.489 700.102C957.751 726.121 949.38 741.941 947.36 747.559C932.661 780.352 922.551 813.859 917.02 848.102C894.04 1016.44 893.341 1182.88 914.95 1347.41C924.579 1428.88 950.801 1515.46 993.591 1607.12C1042.8 1708.98 1131.71 1864.29 1260.32 2073.05C1266.38 2085.76 1266.69 2091.96 1261.29 2091.65C1231.68 2069.28 1167.5 1991 1068.76 1856.79C1010.32 1776.14 969.071 1711.08 945.001 1661.63C885.52 1544.38 842.68 1385.05 816.489 1183.64C802.602 1079.47 799.462 993.398 807.079 925.43C813.989 841.301 830.591 743.129 856.88 630.922C896.93 482.398 950.719 409.18 1018.25 411.281Z" fill="#37004F"/>
<path d="M780.179 446.949L750.987 462.5C634.249 536.039 537.448 666.039 460.608 852.48C434.198 923.41 418.249 991.691 412.749 1057.33C410.589 1068.09 410.12 1100.46 411.327 1154.44C413.698 1197.65 420.077 1240.93 430.46 1284.26C435.679 1312.51 450.878 1374.77 476.058 1471.01C496.089 1542.76 515.8 1599.49 535.19 1641.22C575.999 1720.57 627.358 1792.43 689.288 1856.82C808.101 1973.17 939.577 2012.3 1083.73 1974.21C1080.93 1959.41 1064.41 1930.6 1034.17 1887.78C960.538 1796.27 906.96 1725.66 873.409 1675.93C834.179 1596.58 807.671 1518.72 793.878 1442.33C774.019 1325.47 766.87 1152.43 772.421 923.211C776.448 876.719 784.909 828.789 797.808 779.41C823.421 692.012 846.468 628.039 866.948 587.5L780.179 446.949Z" fill="#651D84"/>
<path d="M836.66 408.27L830.059 408.781C812.25 411.481 792.922 424.82 772.078 448.801L844.488 617.379C856.301 603.461 865.77 591.641 872.891 581.922C880.199 569.469 886.68 557.359 892.328 545.559C896.289 538.281 900.051 527.641 903.609 513.629L904.738 506.219C905.27 501.289 905.359 496.41 904.98 491.559C903.52 473.102 894.82 453.422 878.871 432.539C865.961 416.328 851.891 408.238 836.66 408.27Z" fill="#651D84"/>
<path d="M1241.18 473.141L1131.89 490.84C1034.32 679.281 977.879 799.27 962.571 850.801C931.719 964.129 921.141 1085.49 930.829 1214.89C938.809 1332.1 964.782 1444.77 1008.72 1552.91C1032.38 1607.56 1074.94 1681.59 1136.42 1775.01C1172.04 1825.71 1208.92 1869.59 1247.06 1906.64C1354.61 1847.42 1425.78 1781.11 1460.56 1707.71C1523.29 1555.42 1564.34 1438.75 1583.73 1357.71C1593.36 1321.16 1598.73 1244.83 1599.82 1128.72C1600.29 1101.66 1598.72 1073.71 1595.09 1044.89L1588.13 1000.98C1582.47 971.27 1574.76 940.68 1565.01 909.199C1550.25 855.012 1517.83 779.77 1467.74 683.488C1425.6 613.441 1350.08 543.32 1241.18 473.141Z" fill="#651D84"/>
<path d="M616.622 862.91L588.79 864.27C578.422 881.25 567.36 905.07 555.61 935.738C534.571 994.121 518.801 1043.14 508.301 1082.83C505.579 1094.91 503.36 1106.98 501.641 1119.06L499.422 1137.18C498.192 1149.27 497.462 1161.35 497.212 1173.43C496.981 1185.52 497.231 1197.61 497.981 1209.7L499.481 1227.84L504.43 1270.28C509.262 1303.71 518.922 1341.25 533.399 1382.89C545.18 1418.87 567.192 1470.3 599.422 1537.21C622.43 1582.33 656.821 1625.07 702.59 1665.43C704.43 1665.88 705.27 1661.16 705.11 1651.24C698.661 1617.16 695.532 1594.59 695.692 1583.52C699.719 1494.96 701.27 1434.95 700.36 1403.48L684.59 1130.94C686.38 1090.29 685.43 1049.47 681.739 1008.46C677.11 970.328 670.239 939.559 661.149 916.16C656.61 904.461 651.501 894.59 645.84 886.57L636.942 875.93C630.719 869.75 623.95 865.41 616.622 862.91Z" fill="#7C329B"/>
<path d="M1183.52 637.859L1182.32 637.871L1178.13 638.02L1128.2 710.859C1116.96 728.91 1106.75 746.43 1097.58 763.41C1070.07 814.359 1051.91 860.5 1043.09 901.84L1039.46 922.102C1037.25 952.16 1035.54 987.672 1034.34 1028.63C1031.85 1142.67 1031.48 1214.29 1033.24 1243.49C1035.02 1275.04 1040 1310.26 1048.18 1349.16C1057.44 1388.78 1072.79 1429.64 1094.22 1471.75C1154.31 1580.17 1204.3 1645.12 1244.18 1666.61C1261.64 1661.28 1283.41 1635.68 1309.5 1589.8C1337.14 1540 1358.77 1487.11 1374.4 1431.12C1386.37 1388.54 1392.57 1355.1 1392.99 1330.8C1393.2 1326.44 1393.34 1322 1393.41 1317.5C1391.43 1285.04 1390.29 1226.14 1389.97 1140.81C1387.35 1096.59 1377.87 1043.11 1361.52 980.359C1351.03 937.25 1335.14 877.891 1313.85 802.309C1308.36 783.328 1301.07 762.719 1292 740.48C1265.37 670.629 1229.21 636.422 1183.52 637.859Z" fill="#7C329B"/>
<path d="M1331.19 120.059L1318.88 120.23C1305.95 120.109 1288.44 121.859 1266.36 125.461C1265.37 124.16 1243.99 130.961 1202.22 145.852L1165.67 162.02L1132.46 180.57L1102.59 201.512L1076.05 224.852C1059.47 241.199 1045.12 259.141 1032.99 278.68C1020.86 298.219 1010.96 319.352 1003.27 342.07L1025.99 368.109C1025.4 367.609 1026.41 367.328 1029.04 367.262C1028.62 366.941 1034.86 367.5 1047.77 368.922C1065.88 371.148 1095.25 375.621 1135.88 382.34C1144.48 383.059 1173.14 391.148 1221.89 406.621C1233.59 409.43 1244.47 410.84 1254.55 410.84C1268.44 411.379 1283.73 407.441 1300.44 399.02C1327.48 386.711 1349.29 374.039 1365.86 361C1380.99 348.66 1390.77 338.91 1395.17 331.738C1407.74 315.129 1426.14 286.77 1450.36 246.672C1457.59 237.238 1465.2 228.672 1473.19 220.961C1494.48 198.93 1526.47 180.941 1569.14 167C1503.04 147.84 1452.49 134.73 1417.48 127.66C1391.78 122.109 1363.01 119.57 1331.19 120.059Z" fill="#48790C"/>
<path d="M711.109 241.461L707.519 241.5C698.262 241.649 691.34 242.328 686.75 243.539C681.371 259.121 677.84 274.129 676.16 288.57C674.031 311.371 675.301 330.609 679.98 346.301C682.531 354.719 687.68 363.488 695.441 372.621C703.191 381.738 713.558 391.219 726.519 401.059C752.699 418.988 776.512 432.379 797.949 441.211C811.519 447.02 825.48 450.961 839.82 453.02C857.609 455.309 878.512 456.289 902.539 455.942C920.609 455.75 941.09 454.949 963.98 453.559L982.84 430.731C969.301 374.82 951.07 333.09 928.148 305.551C920.512 296.371 912.351 288.762 903.672 282.731C887.14 271.32 867.629 262.359 845.14 255.82C827.859 251.031 808.64 247.942 787.512 246.551C747.269 242.672 721.808 240.981 711.109 241.461Z" fill="#48790C"/>
<path d="M1337.89 120C1335.67 120.012 1333.44 120.031 1331.19 120.059L1318.88 120.23C1318.36 120.23 1317.85 120.23 1317.32 120.23C1304.56 120.25 1287.57 122 1266.36 125.461C1266.27 125.352 1266.06 125.301 1265.72 125.301C1261.78 125.309 1240.62 132.16 1202.22 145.852L1165.67 162.02L1132.46 180.57L1102.59 201.512L1076.05 224.852C1059.47 241.199 1045.12 259.141 1032.99 278.68C1023.94 293.25 1016.14 308.711 1009.56 325.051L1021.18 362.602L1024.63 373.75C1025.59 371.66 1026.68 369.512 1027.89 367.309C1035.7 353.129 1048.76 336.68 1067.05 317.969C1079.48 306.77 1092.8 298.512 1107.01 293.191C1116.06 289.039 1128.52 286.16 1144.39 284.559C1176.41 286.43 1201.53 287.34 1219.75 287.309C1237.31 287.27 1248.45 286.352 1253.18 284.539C1268.87 278.469 1280.58 272.859 1288.32 267.699C1344.52 225.68 1381.56 200.961 1399.43 193.539C1413.98 187.559 1428.02 183.121 1441.57 180.219C1488.65 174.871 1520.32 170.078 1536.6 165.828C1542.03 164.422 1545.74 163.059 1547.74 161.77L1548.56 161.09C1492.46 145.121 1448.77 133.98 1417.48 127.66C1393.59 122.5 1367.06 119.941 1337.89 120Z" fill="#75A026"/>
<path d="M714.961 241.379C713.512 241.391 712.23 241.41 711.109 241.461L707.52 241.5C698.262 241.649 691.34 242.328 686.75 243.539C684.77 249.262 683.051 254.899 681.57 260.469L791.41 275.852C817.781 283.469 837.828 291.77 851.57 300.738C877.988 319.488 899.109 338.781 914.922 358.61C923.641 369.09 931.84 380.27 939.52 392.149C943.871 397.059 953.738 415.449 969.141 447.32C969.621 448.309 970.109 449.32 970.59 450.328L972.23 443.578L978.98 415.641C965.898 367.262 948.949 330.559 928.148 305.551C920.512 296.371 912.352 288.762 903.672 282.731C887.141 271.32 867.629 262.36 845.141 255.82C827.859 251.031 808.641 247.942 787.512 246.551C751.488 243.078 727.309 241.36 714.961 241.379Z" fill="#75A026"/>
<path d="M1006.65 0.269531H1006.24C959.789 7.69141 934.089 19.8789 929.148 36.8281C928.898 43.3789 929.339 50.9219 930.468 59.4492C939.511 96.0312 947.339 138.398 953.949 186.559L957.171 225.449L965.07 366.039C965.621 383.719 965.039 399.898 963.339 414.57C963.968 423.359 964.589 437.352 965.191 456.539C965.398 460.75 966.679 470.68 969.019 486.352L967.128 493.059L974.23 494.48C978.718 494.559 983.109 493.02 987.39 489.879C990.66 488.422 995.851 481.98 1002.96 470.531L1010.19 451.91C1010.41 445.609 1015.55 428.398 1025.62 400.289L1028.4 371.98L1028.06 358.719C1031.12 318.059 1032.59 294.68 1032.48 288.59C1032.56 285 1032.54 282.301 1032.43 280.48L1029.14 206.57C1029.18 196.84 1029.69 183.871 1030.69 167.66C1031.52 162.602 1032.93 157 1034.91 150.879C1045.1 123.02 1050.31 107.852 1050.55 105.391C1053.94 87.8086 1056.37 73.9102 1057.86 63.6797C1059.52 52.2695 1060.59 42.1406 1061.08 33.3008C1061.59 22.9609 1060.39 17.3398 1057.48 16.3984C1033.21 6.87109 1016.26 1.48828 1006.65 0.269531Z" fill="#48790C"/>
<path d="M1020.29 386.18L977.109 476.48C976.59 486.621 980.211 491.219 987.949 490.27L993.82 489.102C997.57 488.219 1000.99 487.148 1004.07 485.871C1007.16 484.602 1009.92 483.121 1012.35 481.449C1017.15 478.211 1020.73 473.961 1023.11 468.691C1023.54 467.789 1023.92 466.68 1024.25 465.379L1027.39 450.609L1027.73 424.891C1027.47 421.48 1027 417.961 1026.34 414.359C1022.8 400.102 1020.79 390.699 1020.29 386.18Z" fill="#48790C"/>
<path d="M1006.65 0.269531H1006.24C959.789 7.69141 934.089 19.8789 929.148 36.8281C928.898 43.3789 929.339 50.9219 930.468 59.4492C939.511 96.0312 947.339 138.398 953.949 186.559L957.171 225.449L965.07 366.039C965.621 383.719 965.039 399.898 963.339 414.57C963.968 423.359 964.589 437.352 965.191 456.539C965.398 460.75 966.679 470.68 969.019 486.352L967.128 493.059L974.23 494.48C974.351 494.48 974.46 494.48 974.578 494.48C977.839 494.48 981.039 493.621 984.179 491.922C981.859 478.539 981.468 459.648 983.031 435.238L978.378 394.961L980.289 351.578L976.73 315.309C977.8 307.789 978.82 290.27 979.789 262.77C977.218 234.02 976.55 215.68 977.769 207.738L966.851 126.891L952.499 91.7188C951.511 85.4414 951.648 78.3008 952.929 70.3086C953.339 65.6406 956.468 55.9219 962.328 41.1406C964.898 35.7305 967.781 31.0312 970.988 27.0312C975.82 19.6211 985.07 13.9102 998.769 9.89844C1000.96 9.55859 1003.25 9.37891 1005.62 9.37891C1017.47 9.35938 1031.53 13.5508 1047.81 21.9609C1053.61 25.1992 1057.96 30.25 1060.84 37.1016C1060.93 35.8086 1061.01 34.5391 1061.08 33.3008C1061.59 22.9609 1060.39 17.3398 1057.48 16.3984C1033.21 6.87109 1016.26 1.48828 1006.65 0.269531Z" fill="#85B330"/>
<path d="M1001.01 16.8398H999.738C977.031 22.4102 962.648 29.6797 956.609 38.6484C955.078 41.1797 954.148 43.8594 953.828 46.7109L951.391 83.8516C951.23 86.3281 952.309 93.9414 954.59 106.68C964.969 131.039 970.66 147.641 971.641 156.48L971.789 159.422L970.359 194.141C971.09 226.07 971.039 244.82 970.18 250.41C970.211 255.609 971.73 268.828 974.711 290.059L975.559 344.961C976.351 355.84 977.551 366.18 979.148 376.012L979.172 425.238L980.719 446.359L979.961 469.352C981.48 470.352 983.48 470.91 985.961 471.039C988.519 471.352 991.922 469.84 996.16 466.488L1018.66 464.512C1017.79 461.68 1015.72 457.98 1012.44 453.422C1010.66 450.48 1004.69 443.422 994.531 432.238C993.039 427.941 991.949 422.84 991.281 416.91L990.961 383.359L996.961 296.129L998.059 288.539L998.309 274C998.32 271.031 998.211 268.48 997.961 266.34L991.68 231.988C991.43 229.648 991.351 225.352 991.449 219.078C991.648 213.922 992.898 204.34 995.211 190.352C994.66 175.051 994.672 165.891 995.23 162.871L1000.88 132.828L1000.21 122.57C998.461 116.359 997.309 110.91 996.781 106.23C996.43 103.281 996.328 100.328 996.48 97.3711C996.879 91.0508 1001.6 80.7305 1010.63 66.3906C1013.44 61.8203 1023.41 52.25 1040.57 37.6797C1044.01 32.7109 1045.7 29.4687 1045.64 27.9805C1038.68 21.1797 1023.81 17.4687 1001.01 16.8398Z" fill="#658F17"/>
<path d="M1020.07 11.0312H1019.83C1015.97 11.5 1010.42 11.8086 1003.17 11.9414C996.261 12.7812 992.48 13.2812 991.82 13.4414C989.129 14.1406 986.671 14.9297 984.429 15.8086L981.16 17.2304C979.05 18.2304 977.109 19.3515 975.328 20.5703C974.238 21.0508 971.929 23.1406 968.421 26.8594C965.769 30.1914 964.269 32.8984 963.929 34.9883C962.839 38.6601 962.879 42.5 964.05 46.4883L964.921 48.1601L965.461 48.6914L966.07 49C966.191 49.0703 966.968 49.1406 968.421 49.2109C968.871 49.2109 969.238 49.1601 969.539 49.0586L981.511 44.5312C985.711 42.8515 991.089 40.2383 997.66 36.6914L1018.97 27.6797L1020.96 27.1719C1021.6 27.039 1022.21 26.9492 1022.8 26.8984C1027.86 26.6719 1031.88 26.3789 1034.82 26.0195L1040.44 26L1062.43 29.8515C1061.64 29.4883 1060.68 28.8984 1059.56 28.1015C1057.48 26.5312 1055.81 25.1797 1054.56 24.0312L1051.99 22.4219C1048.61 20.3086 1044.72 18.2304 1040.31 16.1914L1033.93 13.539C1032.5 13.0117 1031.05 12.5 1029.59 12.0312C1024.74 11.2812 1021.57 10.9492 1020.07 11.0312Z" fill="#658F17"/>
<path d="M1003.02 5.21094L1001.19 5.25C1000 5.30859 998.859 5.42187 997.789 5.58984C995.191 6.10937 993.699 6.48828 993.32 6.73047C992.41 7.07031 991.559 7.46094 990.77 7.91016C989.07 8.85156 987.141 10.1094 984.988 11.6797C981.539 14.4805 979.16 16.7109 977.84 18.3711C973.871 23.0312 971.641 26.1406 971.148 27.7188C969.738 31.4805 969.891 34.6797 971.578 37.3086C972.148 38.2305 975.609 41.6094 981.98 47.4688L1038.42 14.0508C1036.98 12.2109 1035.24 11.0898 1033.18 10.6602C1031.97 10.3906 1029.93 10.2813 1027.08 10.3516C1023.09 9.48047 1019.84 8.57031 1017.32 7.60156L1004.04 5.21094H1003.02Z" fill="#658F17"/>
<path d="M1022.44 457.379L981.328 461.172C980.769 462.422 980.3 463.648 979.91 464.859C979.109 467.859 978.73 469.629 978.769 470.191C978.538 472.512 978.64 474.75 979.109 476.93C979.89 480.129 980.859 482.691 982.038 484.59C982.621 485.551 983.249 486.34 983.941 486.969L984.999 487.789C985.73 488.262 986.511 488.57 987.339 488.711C990.038 487.59 993.871 485.559 998.808 482.602C1001.52 480.891 1003.97 479.109 1006.14 477.25C1010.12 473.16 1013.36 470.102 1015.85 468.07C1015.81 467.801 1017.39 465.809 1020.61 462.09C1021.05 460.762 1021.66 459.191 1022.44 457.379Z" fill="#658F17"/>
<path d="M2070.32 897.09L2070.08 896.949C2038.06 916.012 2008.75 921.148 1982.17 912.352C1972.76 909.012 1965.07 903.93 1959.08 897.121C1936.7 851.672 1918.66 826.238 1904.96 820.828C1857.92 806.238 1809.97 797.16 1761.13 793.59C1664.99 785.711 1562.11 801.352 1452.47 840.531C1254.54 913.738 1093.3 1051.71 968.738 1254.43C916.75 1354.52 889.199 1416.44 886.09 1440.21C872.27 1483.84 861.5 1529.03 853.75 1575.78C835.149 1667.83 834.93 1769.06 853.078 1879.46C893.27 2075.79 1000.3 2227.7 1174.18 2335.21C1351.34 2432.06 1547.04 2442.53 1761.27 2366.62C1955.45 2282.37 2103.51 2161.14 2205.45 2002.93C2332.35 1804.82 2383.73 1599.22 2359.59 1386.13C2352.35 1284.03 2316.31 1182.36 2251.48 1081.1C2218.36 1024.61 2157.97 963.281 2070.32 897.09Z" fill="#450063"/>
<path d="M2056.71 918.828L2056.48 918.692C2025.54 937.09 1997.24 942.039 1971.57 933.539C1962.48 930.309 1955.05 925.399 1949.27 918.828C1927.67 874.922 1910.25 850.36 1897.02 845.121C1851.59 831.02 1805.29 822.239 1758.11 818.781C1665.27 811.129 1565.89 826.211 1459.98 864.02C1268.8 934.66 1113.02 1067.87 992.661 1263.64C942.422 1360.28 915.79 1420.09 912.782 1443.04C899.422 1485.18 889.001 1528.82 881.512 1573.97C863.512 1662.87 863.27 1760.64 880.77 1867.28C919.52 2056.91 1022.86 2203.66 1190.77 2307.54C1361.84 2401.14 1550.85 2411.31 1757.79 2338.06C1945.36 2256.75 2088.39 2139.7 2186.89 1986.92C2309.52 1795.62 2359.2 1597.07 2335.95 1391.24C2328.99 1292.63 2294.22 1194.42 2231.63 1096.61C2199.66 1042.04 2141.35 982.781 2056.71 918.828Z" fill="#CB7C00"/>
<path d="M2047.68 960.781L2047.46 960.641C2017.5 978.07 1990.2 982.578 1965.56 974.16C1956.84 970.961 1949.73 966.16 1944.23 959.781C1923.83 917.309 1907.29 893.48 1894.59 888.32C1850.98 874.32 1806.48 865.441 1761.08 861.672C1671.75 853.441 1575.92 867.039 1473.59 902.461C1288.84 968.719 1137.61 1095.54 1019.9 1282.93C970.62 1375.53 944.429 1432.86 941.308 1454.94C928.058 1495.39 917.62 1537.32 909.988 1580.73C891.827 1666.16 890.691 1760.3 906.558 1863.15C942.109 2046.1 1040.25 2188.37 1200.97 2289.96C1364.84 2381.67 1546.74 2393.22 1746.68 2324.6C1928.05 2248.04 2066.87 2136.66 2163.13 1990.46C2282.98 1807.4 2332.67 1616.66 2312.19 1418.26C2306.39 1323.24 2273.82 1228.35 2214.46 1133.58C2184.18 1080.74 2128.59 1023.14 2047.68 960.781Z" fill="#EDA533"/>
<path d="M1822.63 1766.57L1794.85 1813.13C1733.27 1903.89 1663.19 1965.25 1584.62 1997.21C1505.75 2028.95 1436.83 2021.89 1377.86 1976.06C1324.18 1927.49 1298.68 1856.32 1301.36 1762.57C1304.33 1668.32 1336.46 1572.76 1397.73 1475.91C1459.32 1385.14 1529.4 1323.78 1607.97 1291.83C1686.84 1260.09 1755.76 1267.14 1814.73 1312.98C1868.41 1361.55 1893.91 1432.71 1891.23 1526.47C1890.27 1556.72 1886.05 1587.97 1878.58 1620.24L1864.91 1668.82C1854.15 1701.53 1840.06 1734.11 1822.63 1766.57Z" fill="#5C3813"/>
<path d="M1766.45 1730.95L1743.97 1768.42C1693.95 1841.36 1636.59 1890.29 1571.85 1915.23C1506.86 1939.98 1449.69 1933.34 1400.32 1895.32C1355.31 1855.16 1333.39 1797 1334.56 1720.86C1335.03 1696.29 1338.18 1670.94 1344 1644.83L1354.79 1605.53C1363.34 1579.1 1374.65 1552.81 1388.73 1526.66C1433.43 1447.23 1487.94 1390.51 1552.25 1356.5C1616.57 1322.49 1676.03 1318.94 1730.63 1345.85C1783.03 1376.81 1812.61 1428.51 1819.35 1500.96C1826.09 1573.4 1808.46 1650.06 1766.45 1730.95Z" fill="#765126"/>
<path d="M1557.95 1615.06L1548.62 1635.09C1528.41 1674.81 1507.02 1704.3 1484.45 1723.57C1461.81 1742.78 1443.36 1746.54 1429.09 1734.84C1416.37 1721.62 1412.16 1697.33 1416.48 1661.95C1417.9 1650.53 1420.25 1638.43 1423.51 1625.64L1429.09 1606.17C1433.26 1592.92 1438.34 1579.4 1444.32 1565.62C1463.12 1523.53 1483.97 1490.77 1506.87 1467.35C1529.77 1443.93 1549.5 1435.19 1566.06 1441.13C1581.69 1449.2 1588.74 1469.59 1587.22 1502.32C1585.69 1535.03 1575.93 1572.62 1557.95 1615.06Z" fill="#8F6433"/>
<path d="M1770.76 966.269L1769.4 964.531C1702.82 912.871 1593.57 920.93 1441.66 988.719C1314.8 1052.2 1210.32 1144.52 1128.2 1265.68C1051.13 1372.71 1003.48 1502.57 985.249 1655.25C975.179 1740.62 973.538 1821.27 980.327 1897.21C982.73 1942.22 1002.76 1989.54 1040.43 2039.15C1070.06 2076.56 1107.9 2106.51 1153.94 2129.02C1195.27 2146.59 1221.11 2145.63 1231.48 2126.16C1239.9 2115.98 1246.04 2092 1249.91 2054.22L1262.57 1833.59C1265.88 1790.29 1271.11 1747.32 1278.25 1704.68C1289.55 1637.2 1306.06 1578.43 1327.78 1528.35C1346.67 1490.09 1362.04 1463.91 1373.89 1449.8C1388.38 1430.22 1404.48 1412.32 1422.21 1396.1C1428.31 1389.51 1449.11 1372.67 1484.61 1345.57C1580.1 1278.93 1630.79 1242.21 1636.65 1235.41C1667.06 1210.25 1689.77 1187.93 1704.77 1168.44C1734.85 1130.14 1756.67 1089.6 1770.23 1046.82C1781.21 1013.15 1781.38 986.301 1770.76 966.269Z" fill="#F4B857"/>
<path d="M2161.4 1238.06L2158.75 1232.18C2138.54 1182.92 2093.81 1138.21 2024.57 1098.06C1983.25 1076.23 1944.82 1085.79 1909.29 1126.75C1881.62 1160.52 1867.9 1196.33 1868.15 1234.2C1870.48 1253.9 1872.84 1267.38 1875.23 1274.62L1911.77 1397.31C1917.24 1418.02 1917.77 1453.52 1913.37 1503.82C1903.21 1615.01 1880.38 1702.59 1844.88 1766.57C1803.44 1842.07 1716.57 1926.71 1584.29 2020.52C1553.03 2041.18 1529.61 2053.98 1514.03 2058.9C1492.25 2068.12 1445.66 2080.58 1374.26 2096.29C1363.38 2099.37 1353.92 2104.25 1345.87 2110.93C1329.81 2123.35 1329.43 2144.92 1344.72 2175.63C1386.07 2271.86 1465.78 2312.45 1583.83 2297.39C1796.34 2255.48 1944.48 2188 2028.25 2094.93C2099.82 2015.94 2154.57 1856.43 2192.51 1616.41C2214.61 1475.65 2204.24 1349.53 2161.4 1238.06Z" fill="#F4B857"/>
<path d="M1371.54 1141.61L1369.54 1142.35C1350.03 1149.56 1336.19 1156.53 1328.03 1163.28C1314.32 1173.18 1298.72 1188.17 1281.22 1208.24C1265.85 1225.4 1248.04 1250.16 1227.81 1282.5L1214.87 1304.86C1206.54 1319.96 1198.77 1335.37 1191.55 1351.11C1164.39 1409.16 1141.92 1480.23 1124.15 1564.3C1109.48 1637.02 1110.99 1670.39 1128.68 1664.4C1131.92 1663.16 1135.09 1660.98 1138.2 1657.88L1160.1 1633.67C1171.24 1620.94 1187.26 1600.78 1208.17 1573.18C1215.48 1563.59 1227.37 1547.41 1243.86 1524.62C1309.09 1432.86 1343.39 1384.86 1346.77 1380.65C1353.1 1371.99 1359.48 1363.37 1365.92 1354.78C1402.99 1306.75 1421.8 1282.01 1422.35 1280.58C1434.73 1263.43 1443.53 1249.32 1448.75 1238.26C1453.54 1228.95 1455.99 1218.32 1456.09 1206.37C1456.68 1199.46 1452.19 1189.09 1442.64 1175.25C1422.09 1151.26 1398.39 1140.05 1371.54 1141.61Z" fill="#F9C46E"/>
<path d="M2089.17 1617.38L2088.62 1615.97C2084.87 1600.44 2072.32 1582.37 2050.98 1561.75C2028.09 1543.29 2013.17 1536.95 2006.22 1542.75C2003.22 1546.33 2001.66 1550.51 2001.52 1555.28C2000.9 1556.28 2001.77 1565.04 2004.14 1581.55C2004.43 1586.91 2004.23 1593.43 2003.56 1601.09C2001.66 1617.05 1999.12 1629.22 1995.91 1637.58C1989.44 1654.87 1978.34 1679.72 1962.61 1712.12C1944.57 1747.36 1933.35 1768.3 1928.97 1774.92C1908.47 1808.75 1895.74 1828.76 1890.8 1834.94C1870.11 1863.96 1853.23 1885.59 1840.18 1899.84C1829.98 1911.16 1819.34 1922.07 1808.28 1932.59C1757.36 1979.99 1729.73 2005.1 1725.42 2007.92C1717.82 2015.34 1713.56 2019.94 1712.64 2021.71C1704.5 2032.78 1701.8 2042.75 1704.52 2051.61C1716.67 2073.83 1742.81 2084.15 1782.95 2082.56C1810.48 2080.59 1836.01 2065.54 1859.54 2037.43C1889.17 2001.23 1917.72 1960.52 1945.18 1915.3C1949.86 1908.13 1962.91 1886 1984.35 1848.91L2034.73 1759.35C2054.67 1725.27 2065.28 1706.84 2066.55 1704.07C2075.49 1688.33 2082.78 1671.57 2088.42 1653.79C2091.49 1640.61 2091.74 1628.47 2089.17 1617.38Z" fill="#F9C46E"/>
</g>
<defs>
<filter id="filter0_d_208_476" x="0.53125" y="0.269531" width="2608.04" height="2574.16" filterUnits="userSpaceOnUse" color-interpolation-filters="sRGB">
<feFlood flood-opacity="0" result="BackgroundImageFix"/>
<feColorMatrix in="SourceAlpha" type="matrix" values="0 0 0 0 0 0 0 0 0 0 0 0 0 0 0 0 0 0 127 0" result="hardAlpha"/>
<feOffset dy="4"/>
<feGaussianBlur stdDeviation="2"/>
<feComposite in2="hardAlpha" operator="out"/>
<feColorMatrix type="matrix" values="0 0 0 0 0 0 0 0 0 0 0 0 0 0 0 0 0 0 0.25 0"/>
<feBlend mode="normal" in2="BackgroundImageFix" result="effect1_dropShadow_208_476"/>
<feBlend mode="normal" in="SourceGraphic" in2="effect1_dropShadow_208_476" result="shape"/>
</filter>
</defs>
</svg>
